<svg width="462" height="624" viewBox="0 0 462 624" fill="none" xmlns="http://www.w3.org/2000/svg">
<rect x="247.267" y="373.38" width="93.132" height="114.698" fill="#FDEA6B"/>
<path fill-rule="evenodd" clip-rule="evenodd" d="M220.103 261.192C230.142 253.547 255.346 250.109 266.061 257.47C276.644 264.862 277.797 276.817 282.729 287.814C287.382 285.62 295.066 288.762 296.415 293.08C298.088 295.117 298.163 300.838 299.317 303.576C349.519 311.568 357.141 350.711 363.184 395.15C371.177 440.244 389.324 485.239 381.446 531.642C382.473 533.127 383.282 534.571 384.03 536.286C385.824 539.337 383.514 543.656 379.897 543.489C375.216 543.078 370.581 542.516 365.877 542.341C352.839 541.888 339.789 541.942 326.745 542.108L324.967 542.131C259.232 542.95 193.501 544.562 127.764 544.99C125.379 544.993 124.212 542.854 124.53 540.744C125.171 536.496 125.766 532.246 126.387 527.995C110.839 532.102 94.3093 533.136 78.8047 528.427C77.72 527.322 81.3318 527.921 81.9049 527.753C67.6357 518.002 71.897 497.459 73.161 482.663C81.0207 431.964 83.7915 375.868 114.159 332.605C127.296 314.95 146.556 300.971 168.688 297.826L169.302 297.742C175.773 296.879 182.986 296.601 188.644 293.08C195.007 288 197.719 278.612 204.414 278.524C206.624 278.495 209.632 281.292 212.868 283.191C213.109 279.013 215.36 275.488 215.857 272.249L215.897 271.972C216.416 268.196 215.706 264.799 220.103 261.192ZM327.993 396.489C313.885 386.687 277.44 391.612 276.606 392.161C274.769 393.37 273.978 393.477 272.984 395.046C272.003 395.176 271.023 395.311 270.044 395.45C268.079 396.092 269.535 398.509 271.804 397.646C270.439 403.533 274.456 407.72 276.056 413.54C276.575 415.43 276.074 418.829 276.056 420.76C276.211 423.222 278.932 426.13 278.479 428.6C276.866 437.381 268.115 445.946 271.804 454.462C274.249 459.272 281.6 461.724 286.488 463.359C296.614 467.246 314.258 463.213 320.141 454.462C323.279 449.794 326.915 438.02 328.786 434.368L329.201 428.575C330.224 414.174 331.134 398.671 327.993 396.489Z" fill="#D08B5B"/>
<path fill-rule="evenodd" clip-rule="evenodd" d="M203.892 278.55L207.929 281.028L231.378 292.621C235.924 293.894 238.197 295.419 238.197 297.198V315.305C238.197 317.728 242.463 323.22 250.995 331.78L258.877 323.922L258.701 322.893C257.951 318.459 257.576 315.494 257.576 313.996C257.576 312.385 265.288 306.269 280.711 295.649L287.458 289.296L286.739 287.108C290.899 287.305 295.411 289.867 296.415 293.08C298.088 295.117 298.163 300.838 299.317 303.576C349.519 311.568 357.141 350.711 363.184 395.15C371.177 440.244 389.324 485.239 381.446 531.642C382.473 533.127 383.282 534.571 384.03 536.286C385.824 539.337 383.514 543.656 379.897 543.489C375.216 543.078 370.581 542.517 365.877 542.341C352.839 541.888 339.789 541.942 326.745 542.108L324.967 542.131C259.232 542.95 193.501 544.562 127.764 544.99C125.379 544.994 124.212 542.855 124.53 540.744C125.171 536.496 125.766 532.246 126.387 527.995C110.839 532.103 94.3093 533.136 78.8047 528.427C77.72 527.322 81.3318 527.921 81.9049 527.753C67.6357 518.002 71.897 497.459 73.161 482.663C81.0207 431.964 83.7915 375.868 114.159 332.605C127.296 314.95 146.556 300.971 168.688 297.826L169.302 297.742L169.921 297.661C176.23 296.858 183.165 296.489 188.644 293.08C194.839 288.134 197.573 279.105 203.892 278.55ZM260.079 384.832C257.779 384.832 253.069 388.403 245.948 395.547L245.321 395.837C236.713 399.836 231.011 403.304 228.214 406.243L228.114 406.349C225.289 409.381 219.693 417.442 211.328 430.533L199.214 437.698H194.631L191.367 461.371L199.214 478.274L216.988 472.287L245.948 464.653L262.566 447.792L271.941 444.644C270.803 447.93 270.391 451.2 271.804 454.462C274.249 459.272 281.6 461.724 286.488 463.359C296.614 467.246 314.258 463.213 320.141 454.462C323.28 449.795 326.915 438.021 328.786 434.369L329.323 426.843C330.29 412.955 331.008 398.584 327.993 396.489C313.885 386.687 277.44 391.613 276.606 392.161C274.769 393.37 273.978 393.477 272.984 395.046L272.47 395.115L275.362 391.192L274.338 390.645C267.031 386.769 262.278 384.832 260.079 384.832ZM271.804 397.646C270.498 403.283 274.124 407.36 275.838 412.805L271.457 404.416L271.457 397.755C271.57 397.727 271.686 397.691 271.804 397.646Z" fill="#079911"/>
<path fill-rule="evenodd" clip-rule="evenodd" d="M201.955 277.675C202.93 276.812 204.371 277.896 203.752 279.062C202.361 281.68 200.934 284.162 199.068 286.477C197.936 287.881 196.723 289.208 195.495 290.521C198.648 293.249 201.352 296.636 203.906 299.81C207.171 303.87 210.258 308.101 213.924 311.816C217.539 315.48 221.536 318.04 226.369 319.748L227.345 320.087C232.2 321.792 237.389 324.094 240.126 328.691C240.665 329.598 239.579 330.718 238.665 330.152C233.91 327.208 228.322 326.615 223.146 324.67C218.146 322.79 213.787 319.897 209.936 316.205C206.091 312.52 202.862 308.326 199.495 304.222C196.165 300.163 192.58 296.696 188.641 293.262C182.563 297.352 175.625 299.131 168.57 300.879L167.8 301.069C160.736 302.818 153.711 304.85 147.084 307.895C141.242 310.58 135.495 313.786 130.736 318.155C125.684 322.792 121.752 328.714 118.153 334.506C110.103 347.462 104.444 361.657 99.4614 376.025C94.2794 390.969 89.9449 406.212 86.4457 421.637C84.666 429.483 83.2207 437.384 82.0327 445.341C81.4609 449.173 80.953 453.014 80.5068 456.863C80.0306 460.973 79.9212 465.201 78.6604 469.153C78.1199 470.846 76.8438 471.549 75.5663 471.489L75.3069 474.735C74.9628 479.061 74.6421 483.39 74.5338 487.743C74.354 494.982 74.4355 502.2 74.9562 509.424L75.0299 510.409C75.439 515.681 76.3533 521.605 80.3173 525.465C84.4224 529.463 90.7355 530.721 96.2685 530.793C109.155 530.961 121.56 524.871 132.964 519.529C144.708 514.027 156.132 507.92 167.281 501.296C172.96 497.923 178.576 494.438 184.122 490.851C186.843 489.09 189.545 487.3 192.227 485.481C193.763 484.439 195.218 483.296 196.782 482.372C196.016 481.658 195.674 480.536 196.316 479.557C191.795 475.633 189.914 468.63 189.694 462.964C189.516 458.39 190.189 453.83 190.72 449.299C190.988 447.014 191.319 444.734 191.663 442.459C191.799 441.561 191.903 440.6 192.061 439.651C179.855 446.36 167.307 452.334 154.427 457.641C147.825 460.362 141.138 462.808 134.359 465.049L132.985 465.501C126.561 467.604 119.985 469.59 113.344 470.793C112.989 470.857 112.701 470.333 113.08 470.166C119.551 467.31 126.246 464.901 132.815 462.271L133.894 461.832C133.77 461.825 133.642 461.808 133.507 461.775C129.655 460.846 125.833 459.413 122.055 458.206C118.549 457.087 114.609 456.383 111.331 454.693C111.079 454.563 111.22 454.212 111.466 454.196C115.15 453.94 119.149 455.014 122.761 455.646L124.118 455.883C126.391 456.284 128.714 456.715 130.976 457.277C131.058 456.519 131.481 455.758 132.083 455.312C138.711 450.403 138.038 440.489 138.747 433.178L139.273 427.75C140.197 418.251 141.175 408.753 142.661 399.324C142.741 398.821 143.519 398.965 143.523 399.441C143.599 411.128 142.717 422.761 142.275 434.43L142.206 436.345C141.962 443.545 141.77 451.022 137.236 456.562C137.87 456.191 138.727 456.191 139.241 456.802C139.872 457.554 140.237 458.397 140.225 459.225C144.323 457.507 148.402 455.744 152.462 453.946C165.514 448.163 178.292 441.691 190.732 434.689C192.071 433.935 193.343 434.527 194.006 435.521L194.101 435.507C194.117 435.505 194.133 435.503 194.15 435.503L194.245 435.499C194.248 435.499 194.252 435.499 194.255 435.499C196.006 434.537 198.392 435.222 199.895 436.626C199.939 436.668 199.977 436.714 200.016 436.759C201.919 435.905 203.695 434.751 205.307 433.29C208.606 430.3 211.401 426.602 213.837 422.894C218.323 416.065 222.134 408.471 228.194 402.85C233.118 398.283 239.222 395.439 245.626 393.654C245.599 393.467 245.671 393.268 245.8 393.135C246.129 392.798 246.364 392.681 246.789 392.886C246.823 392.902 246.843 392.925 246.857 392.95L247.482 391.882C247.823 391.302 248.173 390.719 248.295 390.565C249.022 389.65 249.77 388.741 250.53 387.852C251.818 386.345 253.285 384.859 254.985 383.815C258.706 381.529 262.618 382.822 266.444 384.072C268.756 384.827 271.059 385.607 273.367 386.374L273.605 386.451C275.326 387.004 277.339 387.488 278.109 389.311C278.413 390.033 278.46 390.781 278.318 391.508C294.661 387.351 312.812 389.261 328.76 394.14C329.372 394.327 329.983 394.831 330.112 395.492C331.939 404.864 332.753 414.474 331.926 424.006C331.213 432.233 329.39 440.296 325.955 447.828L325.76 448.253C322.532 455.234 317.416 463.839 309.602 466.027C304.884 467.348 299.666 466.569 294.854 466.327C290.177 466.091 285.397 466.057 280.765 465.322C276.639 464.667 273.025 462.818 270.475 459.463C268.276 456.569 267.117 453.071 266.169 449.591C265.734 449.729 265.303 449.876 264.878 450.043C263.086 450.742 261.567 451.872 260.194 453.202C257.295 456.01 255.046 459.421 252.013 462.1C249.267 464.526 246.137 466.412 242.781 467.863C235.826 470.868 228.365 472.069 221.008 473.662L220.495 473.774C214.957 474.989 209.304 476.481 204.416 479.365C204.32 480.214 203.933 481.013 203.313 481.536C204.176 482.346 204.541 483.628 203.783 484.831C201.667 488.19 198.021 490.101 194.749 492.249L194.536 492.39C191.316 494.524 188.069 496.617 184.795 498.666C178.14 502.833 171.345 506.771 164.455 510.536C153.372 516.591 142.051 522.303 130.526 527.484C131.217 530.888 130.965 534.397 131.485 537.824L131.564 538.313C131.786 539.584 131.486 540.648 130.611 541.479L130.518 541.564L130.52 541.553L130.437 541.628L130.41 541.651L130.419 541.644C130.318 541.736 130.214 541.822 130.108 541.896L129.973 541.983C129.129 542.496 128.043 542.49 127.179 542.037L127.081 541.983L126.915 541.888C125.773 541.231 124.987 539.605 125.46 538.313C126.623 535.137 127.063 531.748 128.138 528.551L127.285 528.932L126.162 529.422C114.011 534.676 100.513 539.102 87.2737 535.519C81.4239 533.936 75.9564 530.587 73.0294 525.128C70.1492 519.757 69.7421 513.52 69.5892 507.545C69.4005 500.171 69.7958 492.683 70.7682 485.372C71.4209 480.465 72.2103 475.464 73.428 470.608C72.8017 470.055 72.3413 469.262 72.2197 468.28C71.645 463.642 72.6508 458.819 73.2665 454.204C73.868 449.698 74.5325 445.202 75.2841 440.719C76.8015 431.665 78.5645 422.631 80.617 413.684C84.2699 397.76 89.0937 382.119 94.9012 366.852L95.4098 365.522C100.776 351.567 106.99 337.91 115.642 325.651C119.781 319.786 124.156 314.469 130.004 310.242C135.483 306.282 141.663 303.431 148.041 301.252C154.426 299.071 160.988 297.61 167.666 296.701C174.449 295.777 181.608 295.211 187.934 292.429C187.134 290.994 187.821 289.057 189.168 288.167C193.701 285.172 197.893 281.275 201.955 277.675ZM347.065 407.919C347.255 407.631 347.706 407.813 347.622 408.154C345.418 417.187 343.348 426.239 341.997 435.444C339.557 452.059 340.006 468.891 340.205 485.629L340.215 486.494C340.318 495.51 340.46 504.526 340.758 513.538C340.909 518.093 341.206 522.692 341.045 527.249C340.956 529.721 340.297 532.06 340.064 534.502C339.859 536.638 340.042 538.806 340.144 540.945C340.212 542.367 338.114 542.306 337.971 540.945L337.788 539.184C337.551 536.956 337.258 534.741 336.528 532.608C335.65 530.043 335.229 527.524 334.924 524.83C334.457 520.703 334.25 516.535 334.07 512.378L333.947 509.503C333.195 492.134 333.221 474.684 334.438 457.333L334.527 456.094C335.733 439.693 337.824 421.972 347.065 407.919ZM300.07 304.55C299.494 304.313 299.696 303.442 300.333 303.594L301.493 303.87C309.991 305.906 318.334 308.111 326.266 311.899C334.202 315.689 340.922 321.347 346.261 328.305C356.639 341.829 360.952 358.265 364.357 374.686C368.141 392.932 371.586 411.245 375.403 429.486L376.112 432.883C379.643 449.872 382.978 466.871 385.435 484.061L385.611 485.308C388.089 502.985 389.579 521.275 386.875 538.998C386.341 542.504 380.506 541.631 380.734 538.167C381.393 528.152 381.865 518.189 381.409 508.152C380.953 498.113 380.011 488.117 378.608 478.166C377.427 469.791 375.666 461.521 374.108 453.212L373.864 451.9C372.559 444.834 371.214 437.775 369.872 430.715L367.867 420.145C364.861 404.317 361.796 388.476 358.333 372.749L358.128 371.823C354.739 356.692 349.743 340.842 339.577 328.826C329.262 316.632 314.494 310.491 300.07 304.55ZM262.586 465.045C262.834 464.492 263.702 464.553 263.969 465.045C265.014 466.974 265.131 469.436 265.328 471.614L265.349 471.838C265.6 474.495 265.823 477.161 265.959 479.827C266.217 484.886 266.341 489.939 266.325 495.005C266.309 500.196 266.204 505.382 265.924 510.565L265.849 511.954C265.593 516.459 265.165 521.484 263.024 525.422C262.246 526.854 260.13 526.433 259.68 524.985C258.203 520.244 258.961 514.623 259.34 509.768L259.634 505.979C259.925 502.19 260.203 498.399 260.423 494.606C260.725 489.415 260.974 484.221 261.213 479.028C261.291 477.341 261.375 475.654 261.464 473.968L261.601 471.438C261.718 469.322 261.708 467.001 262.586 465.045ZM96.5967 471.764L97.2502 471.133C99.2564 469.169 101.792 466.145 104.757 466.333C105.94 466.407 106.694 467.389 106.448 468.553C105.925 471.04 103.387 472.331 101.561 473.85C99.56 475.513 97.6741 477.291 95.792 479.086C94.1222 480.678 92.5164 482.314 90.949 484.002L90.3631 484.638C89.8013 485.251 85.8006 488.87 86.2332 489.809L86.2567 489.851C86.3771 490.03 86.1766 490.278 85.9769 490.215C84.2493 489.669 84.3571 488.188 85.0102 486.687C86.2653 483.805 88.463 481.138 90.3822 478.676C92.2962 476.22 94.3678 473.933 96.5967 471.764ZM268.847 399.466C267.511 396.308 262.589 396.375 259.795 396.563C252.76 397.039 245.147 398.819 238.887 402.108C232.397 405.518 228.025 410.981 224.113 417.022L223.93 417.305C220.117 423.233 216.445 430.249 210.475 434.325C207.434 436.401 203.884 438.297 200.194 439.118C199.941 439.563 199.53 439.916 198.992 440.044L198.742 440.101C197.691 440.333 196.059 440.59 194.649 440.437C194.658 441.127 194.651 441.811 194.668 442.465C194.718 444.338 194.739 446.219 194.739 448.093C194.74 452.02 194.529 455.955 194.693 459.881C194.838 463.354 195.328 466.983 196.996 470.088C198.219 472.366 199.833 473.873 201.781 475.312C206.575 472.39 211.995 470.61 217.495 469.271C224.148 467.652 230.96 466.571 237.461 464.375C240.59 463.318 243.598 461.935 246.324 460.056C249.217 458.061 251.426 455.362 253.7 452.722L254.055 452.312C256.375 449.651 258.907 447.104 262.186 445.662C265.01 444.419 268.731 444.197 271.2 442.274C272.491 441.268 272.599 439.808 272.735 438.313C271.154 438.539 269.48 438.176 267.904 437.992L267.087 437.896C265.597 437.719 264.141 437.524 262.674 437.145C262.402 437.075 262.402 436.664 262.674 436.594C264.408 436.146 266.126 435.955 267.904 435.747L268.321 435.695C269.93 435.484 271.62 435.165 273.197 435.519C273.48 434.442 273.889 433.414 274.463 432.384C275.267 430.938 276.791 429.297 276.996 427.607C277.058 427.102 276.94 426.507 276.702 426.061L276.62 425.909C276.52 425.729 276.402 425.549 276.228 425.437C276.209 425.459 276.169 425.485 276.08 425.512C274.866 425.895 273.807 425.301 273.245 424.385C270.859 424.681 268.255 424.581 266.018 424.68L263.755 424.789C261.338 424.9 258.811 424.949 256.539 424.46C256.222 424.392 256.126 423.864 256.443 423.729C259.236 422.534 262.624 422.153 265.614 421.694C267.284 421.437 268.966 421.242 270.641 421.016C271.756 420.866 272.939 420.617 274.095 420.558C276.991 416.951 275.431 411.262 271.399 409.709C269.93 410.354 268.61 409.979 267.006 409.841C265.404 409.704 263.798 409.611 262.19 409.617C258.968 409.632 255.554 410.479 252.363 410.114C251.844 410.055 251.361 409.364 251.877 408.943C254.32 406.949 257.821 406.299 260.921 405.874L261.564 405.788C262.603 405.652 263.867 405.453 265.178 405.335C265.475 404.757 266.007 404.319 266.806 404.211C267.043 404.178 267.282 404.159 267.52 404.139L267.517 404.115C269.466 404.022 269.381 400.73 268.847 399.466ZM135.424 461.056C135.39 461.109 135.352 461.159 135.312 461.208L135.25 461.28L135.571 461.15L135.424 461.056ZM302.855 392.41C294.652 391.528 286.437 391.714 278.21 391.951C277.552 394.103 275.261 395.938 273.042 396.007C274.78 398.653 274.96 402.234 273.741 405.04C276.329 406.07 278.558 407.921 279.911 410.556C281.788 414.21 281.543 418.276 279.688 421.652C281.271 423.086 282.205 425.413 282.112 427.607C282.007 430.054 280.549 432.143 279.338 434.169C278.028 436.36 277.985 438.288 277.582 440.742C276.994 444.332 274.572 446.51 271.457 447.87L271.622 448.522C272.426 451.649 273.425 454.948 275.721 457.235C278.674 460.176 283.256 460.149 287.158 460.335L287.346 460.345C290.919 460.523 294.491 460.733 298.062 460.935L300.741 461.085C304.854 461.311 308.803 461.338 312.16 458.619C317.641 454.181 321.399 446.836 323.777 440.333C328.769 426.685 328.829 411.707 326.537 397.493C318.853 395.016 310.88 393.272 302.855 392.41ZM234.637 415.053L234.698 415.058C236.387 415.25 237.547 416.618 237.96 418.241C238.56 420.599 238.266 422.731 239.71 424.86C241.196 427.049 242.109 428.801 242.325 431.506C242.414 432.619 242.373 433.729 242.621 434.818L242.8 435.581C242.991 436.395 243.147 437.178 243.052 438.052C242.966 438.849 242.578 439.47 241.779 439.725C239.174 440.558 237.164 438.639 236.491 436.212C235.91 434.116 236.686 431.618 235.866 429.649C235.412 428.558 234.574 427.645 234.101 426.547C233.632 425.458 233.396 424.32 233.321 423.136C233.178 420.898 235.158 418.208 234.053 416.18C233.818 415.747 234.085 415.04 234.637 415.053ZM200.047 391.952C201.81 391.593 203.811 390.772 205.55 391.455C206.444 391.806 206.885 392.896 206.13 393.654C204.819 394.968 202.913 395.042 201.147 395.352L200.992 395.38C198.903 395.766 196.811 396.132 194.716 396.48C190.775 397.133 186.825 397.71 182.86 398.2C178.788 398.704 174.705 399.153 170.616 399.49L169.034 399.62C165.58 399.896 161.986 400.105 158.597 399.576C158.104 399.499 158.184 398.782 158.597 398.656C162.309 397.532 166.382 397.231 170.22 396.756C174.301 396.249 178.375 395.714 182.438 395.08C186.495 394.446 190.546 393.766 194.583 393.014C196.407 392.675 198.229 392.321 200.047 391.952ZM263.676 388.343C262.128 387.795 260.426 386.984 258.749 387.255C255.857 387.724 253.284 390.541 250.995 392.397L252.144 392.173C258.025 391.043 265.812 389.825 270.748 393.565C270.761 393.543 270.771 393.521 270.785 393.5C271.183 392.895 271.645 392.422 272.149 391.905C272.197 391.859 272.244 391.812 272.289 391.765L272.561 391.475L271.94 391.26C270.608 390.789 269.03 390.181 268.781 390.092L268.763 390.086C267.065 389.511 265.365 388.942 263.676 388.343ZM215.36 265.073C215.118 261.961 219.962 261.986 220.202 265.073C220.726 271.813 219.209 278.489 215.945 284.397C215.921 284.44 215.894 284.479 215.869 284.519C217.911 285.582 219.976 286.601 222.086 287.512C224.786 288.678 227.537 289.739 230.337 290.64C232.87 291.455 235.991 291.777 238.12 293.473C242.61 297.049 240.923 304.47 240.06 309.28L239.925 310.04C239.495 312.515 239.184 315.055 240.227 317.43C241.341 319.968 243.595 321.85 245.605 323.666L246.011 324.034C247.792 325.657 249.827 327.628 251.133 329.828C252.326 327.362 253.951 325.347 255.67 323.079C256.896 321.46 256.023 320.927 255.142 319.345C254.295 317.823 253.881 316.201 254.146 314.465C254.635 311.258 257.197 308.942 259.748 307.201C262.761 305.147 266.123 303.625 269.237 301.713C275.636 297.787 281.867 293.297 287.482 288.311C287.637 288.173 287.905 288.354 287.781 288.542C283.346 295.289 278.146 301.118 271.755 306.067C269.163 308.073 266.441 309.738 263.7 311.487L262.912 311.993C261.812 312.706 260.439 313.658 259.942 314.872C259.441 316.093 260.509 317.014 261.083 318.025C262.908 321.236 262.028 324.232 259.864 326.955L259.764 327.081C257.614 329.73 255.985 332.194 255.206 335.579C253.531 342.85 255.863 350.424 258.304 357.25L258.401 357.519C259.721 361.198 261.125 364.851 262.272 368.589L262.588 369.623C263.627 373.062 264.479 376.455 263.312 379.991C262.916 381.193 261.276 381.478 260.595 380.346C258.191 376.354 257.592 371.55 256.086 367.162C254.618 362.885 252.932 358.685 251.514 354.39C249.688 348.861 248.466 342.908 249.129 337.108C249.11 337.075 249.088 337.043 249.072 337.007L248.607 335.99C247.339 333.237 246.115 330.832 243.81 328.637C241.406 326.348 238.796 324.321 236.904 321.55C232.795 315.53 235.336 308.833 235.833 302.25L235.889 301.443C235.979 300.076 236.029 298.219 235.136 297.273C234.132 296.208 231.777 295.937 230.445 295.465C227.002 294.247 223.609 292.827 220.377 291.122C217.301 289.499 214.321 287.706 211.547 285.606L210.141 284.548C207.922 282.873 205.621 281.045 204.134 278.766C203.963 278.504 204.254 278.08 204.565 278.206C207.047 279.213 209.315 280.816 211.638 282.21C211.674 282.125 211.716 282.039 211.764 281.953C214.637 276.752 215.819 270.989 215.36 265.073ZM294.658 300.709C295.647 297.997 300.155 298.206 299.975 301.429C299.837 303.905 298.786 306.14 297.825 308.388L297.722 308.629C296.73 310.972 295.584 313.171 294.213 315.318C291.592 319.421 288.523 323.23 285.245 326.824C282.273 330.083 278.372 332.076 273.877 331.745C271.983 331.605 270.071 331.123 268.411 330.177C266.44 329.053 264.299 325.677 261.784 326.495C261.541 326.574 261.314 326.218 261.524 326.049C264.427 323.71 267.723 327.336 270.503 328.21C274.691 329.525 278.989 328.071 281.685 324.684C284.5 321.148 287.091 317.19 289.456 313.34C290.658 311.385 291.754 309.356 292.701 307.265C293.656 305.155 293.873 302.861 294.658 300.709ZM287.906 284.016C287.784 283.641 288.25 283.285 288.579 283.499C290.486 284.741 292.14 286.382 293.899 287.821C295.852 289.417 297.819 290.981 299.816 292.52C302.727 294.765 299.351 298.897 296.788 296.445C293.28 293.091 289.439 288.704 287.906 284.016ZM277.432 270.887C278.207 267.898 282.791 269.131 282.123 272.085L282.101 272.175C280.836 277.054 282.638 282.022 286.485 285.185L286.626 285.3C289.06 287.248 285.612 290.653 283.203 288.724C277.942 284.513 275.754 277.361 277.432 270.887Z" fill="black"/>
<path fill-rule="evenodd" clip-rule="evenodd" d="M315.865 196.859C314.992 189.166 316.122 173.085 316.198 172.108C316.677 165.932 313.79 141.543 308.331 143.791C299.175 136.526 286.979 134.922 275.575 134.155C251.888 132.563 226.689 136.218 208.398 152.194C199.352 160.491 190.546 172.559 191.254 185.123C183.035 197.033 171.449 213.37 181.689 227.294C185.17 231.743 190.702 233.399 195.074 236.768C203.869 243.878 209.387 254.081 218.266 261.148C241.788 282.332 281.729 286.757 304.839 262.663C322.71 245.212 319.82 219.106 316.677 196.859C314.564 181.903 317.57 211.868 315.865 196.859Z" fill="#D08B5B"/>
<path fill-rule="evenodd" clip-rule="evenodd" d="M243.932 101.53C250.267 100.249 256.772 99.452 263.241 99.692L263.74 99.7114C268.608 99.9063 274.772 100.338 279.019 103.174C279.263 102.929 279.656 102.803 280.012 102.973C285.058 105.387 290.608 107.132 295.921 108.867C301.21 110.592 306.697 111.732 312.24 112.191C314.326 112.364 316.111 114.621 314.79 116.645C314.476 117.127 314.17 117.615 313.865 118.103C314.375 118.05 314.885 117.995 315.395 117.943C317.072 117.774 318.748 119.568 318.648 121.205C318.586 122.234 318.475 123.251 318.311 124.257C318.95 124.243 319.585 124.339 320.199 124.599C323.306 125.914 323.09 129.623 322.857 132.445C322.535 136.361 321.073 140.509 318.36 143.44C320.386 145.549 321.82 148.067 322.676 151.058C323.296 153.242 323.641 155.569 323.471 157.842L323.417 158.523C323.206 160.99 322.787 163.722 321.016 165.497C320.107 166.412 318.987 166.746 317.919 166.64C318.564 172.326 318.978 178.045 319.368 183.743L319.551 186.467C320.42 199.636 321.073 212.892 320.902 226.084C320.743 238.412 318.313 250.378 310.768 260.388C303.897 269.502 294.032 276.222 282.872 278.776C276.857 280.155 270.717 280.252 264.629 279.374C261.679 278.947 258.708 278.292 255.908 277.259C252.808 276.112 250.579 274.424 248.494 271.894C247.507 270.694 247.982 268.14 249.946 268.38C252.918 268.741 255.63 269.176 258.479 270.057L258.886 270.186C261.724 271.097 264.662 271.776 267.628 272.065C273.704 272.655 279.872 272.061 285.692 270.214C295.168 267.204 303.33 260.497 308.561 252.07C314.77 242.081 315.472 230.741 315.382 219.255C315.286 206.651 314.877 194.04 314.21 181.449L314.096 179.35C313.743 172.871 313.402 166.388 313.102 159.905C313.009 157.871 312.867 155.821 312.611 153.791C310.269 152.417 308.171 150.521 306.803 148.182C304.056 149.321 301.166 150.143 298.508 150.798C292.35 152.316 285.956 152.684 279.688 151.734C277.998 152.434 276.273 153.049 274.522 153.579C274.049 153.789 273.576 153.996 273.103 154.198C268.882 156.008 264.601 157.541 260.145 158.664L259.05 158.938C256.706 159.517 254.159 160.087 251.663 160.266C251.253 160.425 250.811 160.559 250.327 160.677C248.055 161.23 245.697 161.405 243.368 161.21C241.099 161.019 239.459 158.721 240.709 156.569C241.622 154.999 242.544 153.433 243.473 151.872C240.239 153.222 236.899 154.344 233.53 155.296C230.13 156.256 226.68 157.066 223.226 157.81C221.379 158.204 219.525 158.554 217.683 158.949C216.364 159.229 214.339 159.376 213.263 160.246C212.074 161.202 211.737 163.431 211.286 164.806C210.694 166.591 210.138 168.385 209.631 170.199C208.621 173.819 207.793 177.492 207.151 181.201C206.51 184.914 206.08 188.664 205.84 192.427C205.601 196.185 205.706 199.968 205.321 203.709C205.114 205.694 202.988 206.715 201.417 205.328C201.233 205.166 201.047 205.001 200.863 204.835L200.589 204.584C199.245 203.364 197.943 202.07 196.868 200.614C196.673 200.346 196.486 200.065 196.312 199.78C196.283 199.78 196.259 199.772 196.23 199.752L195.932 199.527C192.65 197.079 187.167 193.887 183.966 197.954C182.946 199.25 182.424 200.9 181.991 202.492L181.23 205.341C180.739 207.201 180.276 209.071 180.005 210.974C179.392 215.236 179.7 220.15 182.627 223.566C183.796 224.933 185.407 225.909 187.204 226.165C188.207 226.303 189.197 226.133 190.192 226.007C191.202 225.88 192.176 226.084 193.187 225.986C194.794 225.828 195.496 227.755 194.895 228.968C194.571 229.618 194.189 230.18 193.755 230.655C194.103 230.956 194.437 231.282 194.757 231.623C195.707 231.929 196.559 232.583 197.196 233.45C197.712 234.149 197.979 234.91 198.024 235.711C198.081 235.91 198.129 236.114 198.174 236.321L199.045 237.737C199.237 238.048 199.427 238.355 199.619 238.656C201.835 242.154 204.294 245.115 207.35 247.905C210.293 250.589 213.486 252.993 216.25 255.873L216.576 256.215C219.153 258.936 221.869 262.23 220.86 266.188C220.601 267.204 219.184 267.936 218.259 267.249C215.284 265.036 213.786 261.53 211.262 258.846C208.665 256.08 205.787 253.595 203.182 250.837C200.719 248.234 198.775 245.286 197.31 242.04C196.725 242.687 195.873 243.146 194.692 243.325C192.663 243.63 190.772 242.438 189.887 240.677C189.319 240.93 188.739 241.157 188.154 241.336C185.078 242.28 183.142 238.851 184.303 236.317C184.924 234.959 185.699 233.779 186.661 232.787C183.653 232.372 180.593 230.814 178.617 228.87C173.658 223.985 172.976 216.644 174.092 210.116C174.685 206.654 175.707 203.152 177.035 199.902C177.266 199.337 177.513 198.768 177.785 198.206C177.635 198.202 177.481 198.137 177.383 198.011C176.486 196.783 175.395 195.778 174.729 194.403C174.116 193.143 173.435 191.865 172.952 190.552C171.958 187.863 171.471 184.829 171.146 181.986C170.476 176.166 170.736 170.382 171.625 164.598C173.138 154.747 176.794 145.32 182.18 137.048C181.886 136.893 181.605 136.707 181.344 136.487L181.214 136.373L181.004 136.183C179.467 134.789 179.6 132.177 181.004 130.765L181.448 130.319C182.009 129.76 182.493 129.317 183.4 128.709C183.534 128.619 183.671 128.534 183.81 128.455C183.335 127.576 183.17 126.548 183.501 125.413C184.653 121.461 190.327 121.601 193.923 123.325C197.901 119.766 202.313 116.677 207.094 114.176C218.482 108.221 231.359 104.068 243.932 101.53ZM185.066 205.613C187.193 204.918 190.017 206.378 191.929 207.256C194.352 208.371 196.413 210.018 198.41 211.759C199.404 212.629 199.582 214.053 199.335 215.269C199.31 215.391 199.287 215.517 199.258 215.643C198.994 216.94 197.549 217.961 196.271 217.925C193.596 217.852 192.322 215.537 190.808 213.577C190.63 213.894 190.407 214.187 190.131 214.407L189.944 214.553C189.316 215.032 188.623 215.416 187.793 215.379C187.204 215.35 186.641 215.2 186.121 214.927C184.822 214.24 184.25 212.556 184.603 211.185C184.822 210.323 185.325 209.648 185.983 209.18L185.738 209.012C185.213 208.646 184.735 208.261 184.363 207.692L184.278 207.557H184.311C183.905 206.858 184.169 205.906 185.066 205.613Z" fill="black"/>
<path fill-rule="evenodd" clip-rule="evenodd" d="M285.514 246.544C282.518 247.412 279.302 247.489 276.248 246.593C273.478 245.78 270.634 243.991 268.596 241.624C266.785 239.521 265.612 236.965 265.658 234.237C265.663 233.925 265.775 233.665 265.946 233.464C266.13 233.246 266.388 233.097 266.664 233.032C266.948 232.966 267.248 232.989 267.504 233.105C267.735 233.21 267.933 233.389 268.057 233.65C268.37 234.061 268.682 234.467 268.996 234.861C271.515 237.972 273.954 240.297 277.742 241.131C279.797 241.583 281.85 241.382 283.733 240.692C285.749 239.953 287.572 238.654 289 236.991C289.645 236.239 290.407 235.933 291.152 235.927C291.996 235.922 292.831 236.314 293.46 236.941C294.078 237.558 294.491 238.395 294.529 239.271C294.562 240.041 294.311 240.844 293.644 241.561C291.445 243.921 288.596 245.651 285.514 246.544ZM285.421 207.582C288.492 209.449 293.172 213.803 289.868 218.431C285.979 222.512 280.38 217.833 277.621 215.717C275.063 214.077 272.188 218.295 274.562 220.21C294.499 234.972 302.59 208.071 286.975 205.387C285.255 205.092 284.617 207.005 285.421 207.582ZM256.693 199.368C255.706 198.736 254.545 198.52 253.258 199.105C252.252 199.562 250.489 201.087 249.261 203.091C248.421 204.463 247.826 206.071 247.95 207.747C247.979 208.136 247.835 208.423 247.608 208.635C247.429 208.802 247.17 208.925 246.867 208.964C246.609 208.997 246.32 208.967 246.085 208.894C245.638 208.754 245.402 208.465 245.313 208.228C244.454 205.946 244.824 203.398 245.787 201.1C247.087 197.999 249.448 195.401 250.994 194.563C253.641 193.13 256.763 193.064 259.413 194.524C261.669 195.768 263.08 197.775 264.483 199.82C264.781 200.255 265.077 200.687 265.383 201.111C265.997 201.961 266.058 202.804 265.82 203.527C265.557 204.327 264.886 205.003 264.048 205.357C263.272 205.684 262.373 205.73 261.577 205.394C260.904 205.11 260.287 204.557 259.896 203.619C259.238 202.038 258.143 200.295 256.693 199.368ZM306.824 202.884C306.148 203.236 305.619 203.342 304.869 203.117C304.455 202.993 304.045 202.754 303.724 202.433C303.406 202.115 303.176 201.72 303.087 201.281C302.868 200.198 302.275 199.184 301.431 198.524C300.71 197.959 299.799 197.659 298.789 197.828C297.699 198.01 296.66 198.709 295.945 199.534C295.706 199.81 295.518 200.123 295.33 200.434C294.977 201.016 294.635 201.557 294.149 201.984C293.964 202.147 293.687 202.259 293.418 202.259C293.309 202.259 293.198 202.242 293.092 202.209C292.007 201.12 291.798 200.293 291.833 199.474C291.87 198.615 292.209 197.745 292.756 196.933C294.04 195.028 296.479 193.467 298.124 193.113C300.377 192.629 302.615 193.21 304.409 194.469C306.255 195.764 307.623 197.775 308.049 200.041C308.152 200.587 308.109 201.176 307.901 201.686C307.698 202.185 307.344 202.613 306.824 202.884ZM261.662 179.065C260.31 180.382 258.71 180.586 257.091 180.768C256.191 180.87 255.473 180.952 254.766 181.111C252.824 181.55 250.903 182.21 249.152 183.161C247.32 184.156 245.325 185.355 243.889 186.891C243.548 187.257 243.226 187.64 242.904 188.025C242.61 188.375 242.327 188.713 242.029 189.038C241.686 189.412 241.361 189.804 241.037 190.194C240.837 190.524 240.797 190.605 240.757 190.69C240.696 190.817 240.626 190.958 240.545 191.111C240.435 191.319 240.306 191.548 240.17 191.755C239.945 192.133 239.824 192.237 239.72 192.284C239.547 192.361 239.382 192.399 239.223 192.378C239.073 192.359 238.933 192.287 238.794 192.17C238.099 191.583 237.895 190.62 237.916 189.598C237.947 188.048 238.519 186.331 239.046 185.275C240.272 182.823 241.973 180.273 244.017 178.443C246.35 176.353 248.902 174.772 251.833 173.682C253.655 173.004 255.764 172.382 257.749 172.461C259.177 172.517 260.541 172.942 261.667 174.003C262.359 174.654 262.691 175.58 262.691 176.505C262.691 177.449 262.346 178.398 261.662 179.065ZM309.574 191.13C309.488 191.271 309.369 191.368 309.237 191.427C309.098 191.488 308.943 191.505 308.794 191.48C308.646 191.455 308.505 191.388 308.394 191.286C308.287 191.187 308.205 191.057 308.169 190.897C307.271 186.954 305.528 184.02 301.807 182.128C299.977 181.197 297.872 180.606 295.879 180.134C295.301 179.997 294.689 179.908 294.073 179.818C292.142 179.536 290.197 179.213 288.938 177.653C288.18 176.712 287.861 175.51 288.041 174.41C288.211 173.375 288.816 172.425 289.916 171.856C292.654 170.44 296.056 171.83 298.821 173.013C299.026 173.101 299.228 173.187 299.425 173.27C302.128 174.412 304.595 175.918 306.622 178.073C308.23 179.783 309.721 182.31 310.321 184.909C310.82 187.072 310.703 189.28 309.574 191.13Z" fill="black"/>
<path fill-rule="evenodd" clip-rule="evenodd" d="M294.034 253.113C290.247 249.739 286.001 242.954 280.56 248.322C279.215 249.839 278.67 253.239 276.612 253.906C273.879 254.793 271.17 251.901 270.239 249.68C266.428 237.341 282.181 233.957 291.155 235.95C295.539 237.751 298.768 244.999 298.963 248.782C299.09 251.324 296.938 255.062 294.034 253.113ZM322.608 234.095C322.571 233.931 322.52 233.783 322.457 233.648C320.782 233.015 319.457 233.661 318.638 234.867C318.665 235.167 318.754 235.471 318.811 235.768C318.179 237.099 317.608 238.747 316.752 239.898C316.583 239.911 316.408 239.893 316.239 239.844C302.04 241.327 308.972 226.47 294.571 222.779C283.439 220.942 263.318 223.046 258.067 234.635C253.925 253.144 232.865 240.247 225.951 230.621C218.573 221.86 213.802 211.155 209.203 200.767C208.231 198.569 205.197 200.141 205.527 202.25C201.276 210.779 201.417 221.025 200.364 230.369C198.573 249.012 196.828 275.156 214.148 286.539C236.714 312.048 293.064 321.05 319.091 297.611C328.101 278.239 326.99 254.605 322.608 234.095Z" fill="black"/>
<path fill-rule="evenodd" clip-rule="evenodd" d="M319.713 211.223C316.974 214.902 311.898 216.074 307.216 215.669C297.117 214.697 293.939 203.227 293.608 194.312C300.38 196.217 293.035 182.724 316.184 181.24C324.344 180.56 322.094 185.489 325.7 189.09C325.626 196.648 324.368 204.86 319.713 211.223ZM271.613 202.539C265.651 230.462 233.003 223.82 229.573 198.649C232.74 196.414 231.906 190.894 235.84 188.894C242.075 184.91 249.87 185.08 256.951 185.174C266.002 185.795 268.581 189.545 273.23 193.636C273.007 196.368 272.362 199.607 271.613 202.539ZM332.646 176.615C332.311 176.56 331.976 176.507 331.641 176.458C331.379 176.31 331.072 176.195 330.715 176.127C329.9 175.92 329.09 175.78 328.282 175.705C316.678 173.093 289.834 176.801 288.726 186.704C285.031 187.938 281.833 186.833 277.55 186.943C274.29 173.316 217.93 175.239 215.219 183.455C215.209 183.452 215.199 183.45 215.188 183.447C212.584 182.64 208.744 182.835 205.763 182.707C199.398 182.574 193.026 183.141 186.798 184.484C175.136 186.337 159.221 188.507 167.331 203.071C167.333 203.074 167.334 203.077 167.336 203.079L167.337 203.078C168.735 204.511 171.107 203.357 171.196 201.417C168.469 194.517 174.628 193.689 179.366 191.706C191.158 187.47 203.162 186.882 215.357 188.193C216.275 189.273 217.667 190.215 219.138 190.708C227.292 192.062 222.995 198.11 228.149 198.99C227.202 220.076 252.8 231.586 267.631 217.725C273.553 211.934 274.965 203.357 276.338 195.625C277.064 195.462 277.525 195.065 277.795 194.54C279.541 192.797 280.638 191.187 284.09 190.708C287.542 190.23 290.2 191.19 290.56 191.484C290.65 191.667 290.747 191.85 290.86 192.033C291.018 192.306 291.233 192.523 291.477 192.694C288.068 213.692 304.367 226.971 320.821 216.08C327.971 209.354 329.481 199.057 329.78 189.865C330.749 189.28 331.363 188.147 331.027 186.722C330.565 184.757 331.649 183.056 333.376 182.202C335.62 181.093 335.223 177.042 332.646 176.615Z" fill="black"/>
</svg>
