<svg width="413" height="626" viewBox="0 0 413 626" fill="none" xmlns="http://www.w3.org/2000/svg">
<g clip-path="url(#clip0_27_368)">
<path fill-rule="evenodd" clip-rule="evenodd" d="M357.923 520.318C350.481 509.741 334.793 507.99 324.714 500.578C319.405 496.512 313.787 493.821 309.661 488.347C316.23 480.639 308.106 462.568 306.434 452.133C299.81 424.812 293.682 397.053 285.803 369.764C299.458 374.01 295.9 348.59 293.95 342.711C293.815 341.903 292.813 341.742 292.199 341.487C292.371 340.333 292.844 340.08 291.409 339.761C290.93 332.845 292.889 325.1 289.348 318.991C285.357 312.322 275.817 306.741 267.934 306.649C262.397 284.686 261.382 274.328 235.149 283.637C235.729 281.498 235.909 279.536 234.898 277.376C230.954 265.47 225.996 252.445 221.685 240.38C216.716 226.495 211.579 212.138 204.934 198.798C200.305 190.326 185.826 188.061 176.012 189.464C173.671 185.338 167.77 173.928 160.305 176.566C160.249 173.124 160.195 169.683 160.15 166.241C160.112 163.249 160.427 160.182 159.275 157.341C158.055 154.332 155.571 152.744 152.653 151.592C143.821 148.679 133.675 143.998 124.355 146.894C116.212 150.606 117.161 164.563 113.22 172.149C107.698 163.972 98.281 169.455 96.2887 178.225C73.6038 187.257 54.1055 176.997 52.6539 212.449C53.9047 218.911 54.9681 224.973 54.3753 231.499L53.689 231.569C47.8829 262.982 45.6502 296.654 47.0537 331.66C46.7726 345.443 41.7436 358.308 36.8804 370.745C33.3033 379.891 29.6096 389.348 27.8586 399.051C25.917 407.132 18.7796 445.993 34.6504 433.091C35.2585 477.302 74.7044 482.963 110.226 473.197C147.935 465.368 190.386 467.619 213.921 429.74C221.905 443.386 224.659 451.811 226.663 466.08C228.863 476.534 232.056 488.406 237.927 495.32C232.872 504.408 230.396 515.478 230.64 522.693C230.736 525.527 229.438 526.839 231.304 528.601C240.251 537.052 260.214 537.147 275.394 540.91C285.803 542.233 323.44 547.294 329.192 543.995C333.203 545.115 328.538 534.689 332.549 534.466C333.922 534.476 334.105 532.731 335.514 532.795C344.511 533.204 363.908 535.846 359.218 528.601L357.923 520.318Z" fill="#D08B5B"/>
<path fill-rule="evenodd" clip-rule="evenodd" d="M318.714 545.872C295.935 545.009 264.39 538.61 242.203 533.803C236.442 532.721 232.344 529.715 231.145 527.162C230.601 526.005 230.775 523.917 231.3 521.481C231.721 519.525 230.477 517.343 230.707 515.238C231.033 512.253 233.069 507.377 234.122 505.594C236.215 502.052 237.647 493.013 237.803 493.108C240.587 494.804 243.743 495.541 246.992 496.449C247.034 496.46 247.828 498.475 247.869 498.487C247.884 498.528 247.898 498.568 247.913 498.608C248.777 501.013 249.953 502.035 251.349 503.281C252.876 504.643 254.665 504.622 256.588 504.867C261.363 505.475 264.447 503.118 268.978 499.986L269.313 499.977C269.817 499.966 270.336 499.967 270.864 499.968C273.52 499.973 276.399 500 278.453 498.333C278.509 498.288 278.563 498.242 278.616 498.196C278.665 498.243 278.717 498.289 278.771 498.334C278.871 498.416 278.975 498.489 279.082 498.554C279.538 498.284 279.986 498.011 280.431 497.741C281.939 496.824 286.068 494.515 286.105 494.577C287.35 496.68 307.673 484.856 309.436 486.527C311.694 488.668 316.814 496.818 324.379 500.334C337.772 506.559 347.05 511.066 354.071 516.325C361.093 521.583 357.392 524.793 358.084 525.089C359.839 525.84 359.174 531.293 359.087 532.1C359.01 532.814 349.31 534.023 343.289 533.853C336.465 533.66 333.193 532.08 332.578 533.001C330.121 536.348 331.754 543.618 331.754 543.618C331.754 543.618 326.237 547.374 318.714 545.872Z" fill="white"/>
<path fill-rule="evenodd" clip-rule="evenodd" d="M110.728 168.319C110.008 168.12 109.269 168.022 108.525 168.018H108.393C106.773 168.036 105.136 168.501 103.641 169.346C102.733 169.916 102.024 170.949 101.21 172.135C100.13 173.709 98.8651 175.552 96.7057 176.936C93.1726 179.2 88.3924 179.963 84.613 180.567C83.244 180.786 82.0063 180.984 81.0068 181.224L80.7471 181.286L80.1859 181.416L79.7788 181.506L78.1536 181.855C75.5241 182.426 72.9232 183.043 70.4773 183.954L70.239 184.041C62.4128 186.946 58.1491 192.849 56.2628 199.863C55.7441 201.792 51.9256 236.13 48.8194 299.372L48.3182 309.612L47.7674 320.942C47.8153 324.064 47.7607 329.336 47.7094 334.29C47.6713 337.973 47.635 341.48 47.6439 343.799C47.4241 345.6 45.4702 350.849 42.8587 357.866C38.399 369.848 32.0214 386.983 29.0878 400.89C24.6055 422.14 28.5391 429.642 29.2598 431.016C29.2827 431.06 29.3024 431.097 29.3184 431.129C29.5184 431.522 29.7535 431.894 30.0177 432.247L122.872 344.55C122.872 344.55 202.91 344.508 204.57 344.807L205.023 344.888L206.202 345.091L206.686 343.807C207.334 342.095 207.994 340.386 208.667 338.682L208.664 338.682C212.201 329.673 216.038 320.784 220.342 312.112L220.629 311.536L220.001 311.093L219.788 310.941L218.703 310.157C215.88 308.13 211.513 305.185 208.464 305.156L208.354 305.156C208.281 305.157 208.21 305.16 208.138 305.165C207.976 305.175 207.809 305.195 207.641 305.224L207.482 305.651C207.345 306.015 207.205 306.378 207.064 306.74C206.298 306.75 205.333 306.802 204.307 306.858C203.039 306.926 201.678 307 200.49 307.006L200.334 307.006C199.403 307.006 198.588 306.961 198.022 306.835C197.377 306.692 196.733 306.549 196.089 306.416C187.845 304.708 153.422 295.743 152.993 295.354C152.976 295.339 148.069 277.549 142.671 257.979C136.176 234.432 128.971 208.309 128.719 207.473C128.687 207.368 128.654 207.264 128.621 207.16C128.534 207.122 128.449 207.08 128.364 207.033C127.497 206.553 127.025 205.724 126.59 204.862L126.273 204.225L126.118 203.92C125.374 202.537 124.228 200.365 122.994 198.014L117.59 187.68L116.007 184.668C114.292 181.393 112.64 178.085 111.411 174.618L112.143 175.133L112.231 173.798C112.288 172.943 112.603 172.05 112.941 171.201L113.054 170.919C113.11 170.78 113.167 170.64 113.226 170.5C113.127 170.379 113.025 170.259 112.919 170.139C112.321 169.466 111.692 168.917 110.728 168.319ZM163.157 175.187C162.98 175.174 162.801 175.169 162.619 175.169L162.483 175.171C162.117 175.179 161.737 175.217 161.33 175.289C161.074 175.335 160.832 175.39 160.602 175.453C160.64 175.689 160.68 175.924 160.721 176.159C161.134 178.502 161.723 180.809 162.5 183.058C162.544 183.185 162.589 183.311 162.635 183.436L163.592 183.268L164.042 184.83C164.491 186.392 164.934 187.955 165.372 189.52L165.474 189.73C165.593 189.976 165.65 190.215 165.682 190.629C165.718 190.756 165.74 191.138 165.777 191.774C165.984 195.329 166.652 206.834 172.679 226.289C177.182 240.823 194.338 283.202 194.338 283.202C194.338 283.202 211.972 283.209 218.661 283.202C220.251 283.201 223.33 287.379 226.368 291.501C229.321 295.508 232.235 299.462 233.707 299.478C236.107 299.505 235.123 290.438 234.621 285.821C234.453 284.272 234.339 283.223 234.426 283.187L237.724 282.645L236.558 281.869C236.516 281.842 236.477 281.808 236.442 281.773C235.915 281.246 228.276 260.652 220.588 239.926C213.908 221.916 207.19 203.807 205.071 198.679C200.517 190.695 189.418 189.06 180.814 188.157L180.251 188.098L180.086 188.107C179.717 188.131 179.069 188.197 178.305 188.281L176.896 188.442L173.282 188.872C170.498 182.637 167.149 177.232 163.456 175.273C163.41 175.249 163.364 175.225 163.317 175.201C163.263 175.195 163.21 175.191 163.157 175.187Z" fill="#079911"/>
<path fill-rule="evenodd" clip-rule="evenodd" d="M164.868 297.277C163.905 297.169 155.484 295.707 152.985 294.865C152.478 293.852 148.617 278.893 148.617 278.893C146.485 271.327 144.389 263.751 142.293 256.174C139.43 245.825 133.512 223.546 133.462 223.37C133.546 223.41 142.599 226.762 151.458 226.862C160.133 226.961 172.38 222.808 172.427 222.773C172.459 222.885 194.43 283.144 194.322 283.173C192.263 283.742 186.004 285.751 178.72 289.287C173.036 292.045 165.944 296.419 164.868 297.277Z" fill="white"/>
<path fill-rule="evenodd" clip-rule="evenodd" d="M355.69 530.556C349.057 531.987 342.235 531.587 335.515 532.147C335.732 531.585 335.914 531.01 336.056 530.425C343.001 529.585 350.283 529.186 356.904 526.894C357.06 527.64 357.177 528.394 357.224 529.155C357.23 529.257 357.216 530.396 357.379 530.185C357.177 530.446 355.991 530.499 355.69 530.556ZM322.179 513.361C310.108 509.394 297.305 505.987 288 496.784C288.019 496.733 288.037 496.682 288.054 496.631C289.97 496.089 292.076 494.932 293.919 496.19C299.822 495.986 305.987 493.92 310.12 489.552C310.402 489.612 310.676 489.696 310.942 489.801C318.896 503.319 335.841 505.894 348.251 513.727C353.282 516.652 362.652 524.531 350.665 524.707C345.933 525.424 341.173 525.954 336.401 526.321C336.033 518.709 328.487 515.375 322.179 513.361ZM330.618 532.857C328.217 536.127 323.883 537.42 319.962 537.1C317.079 536.708 314.534 535.695 311.535 535.913C288.798 535.05 266.439 530.344 244.267 525.54C224.408 521.818 239.581 507.17 237.927 495.32C240.73 497.027 243.907 498.275 247.179 499.189C251.394 510.908 262.912 507.847 271.069 502.233C274.216 502.131 278.048 502.614 280.622 500.525C280.772 500.649 280.93 500.753 281.094 500.842C283.136 499.64 285.005 498.381 287.147 497.454C294.386 509.682 309.763 512.474 322.101 517.194C329.65 519.227 335.831 525.055 330.618 532.857ZM330.205 543.332C323.824 545.238 317.072 544.908 310.488 544.371C288.86 542.498 267.375 538.815 246.393 533.242C241.416 531.92 231.762 530.385 231.304 524.145C235.733 529.95 243.642 530.633 250.285 532.13C272.091 536.401 294.428 541.917 316.73 540.853C321.44 542.192 326.573 541.135 330.558 538.528C330.432 540.129 330.317 541.73 330.205 543.332ZM212.285 339.482C215.515 330.921 219.018 322.475 222.406 313.967C228.692 317.487 235.789 318.774 243.036 319.596C243.206 319.681 243.387 319.756 243.582 319.816C243.926 319.886 244.214 319.854 244.445 319.748C254.109 320.77 263.966 321.171 272.467 325.119C275.757 326.647 278.844 328.705 281.638 331.54C284.694 334.464 287.157 337.995 288.809 341.891C289.326 343.093 289.599 344.343 290.414 345.332C290.66 346.661 290.938 347.981 291.126 349.323C291.603 354.569 292.252 360.095 290.226 365.128C288.97 368.211 286.395 365.732 284.687 364.525C281.908 362.587 279.35 360.363 276.8 358.14C268.967 350.78 259.812 344.523 248.823 343.489C236.96 341.841 224.106 339.783 212.285 339.482ZM207.531 339.5C206.879 341.163 206.239 342.83 205.61 344.5C202.493 343.967 195.858 342.71 193.142 341.278C194.11 341.31 195.068 340.807 195.314 339.653C195.422 339.142 195.592 338.664 195.725 338.165C197.363 332.834 198.759 327.396 201.071 322.285C203.333 316.889 206.024 311.645 208.08 306.169C211.566 305.949 217.072 310.271 219.562 312.034C215.121 320.98 211.177 330.158 207.546 339.46C207.478 339.46 207.408 339.46 207.34 339.462C207.403 339.475 207.468 339.487 207.531 339.5ZM186.996 338.869C169.117 337.752 150.997 338.929 133.324 335.761C129.974 335.193 126.852 334.166 123.953 332.767C115.517 328.695 108.963 321.466 104.135 313.19C86.6976 286.961 67.5096 260.907 58.9261 230.175C53.8404 215.302 52.8502 193.069 70.6262 186.668C78.5101 183.729 88.0314 183.909 94.8172 178.575C94.0496 181.395 93.6183 184.345 93.2224 186.956C92.5554 191.216 91.8981 195.623 92.44 199.929C92.445 199.967 92.4501 200.005 92.4573 200.04C91.5674 202.464 94.3681 204.752 97.1164 204.514C102.914 204.382 105.758 197.42 111.568 197.208C113.689 197.13 114.956 198.395 116.255 199.899C119.399 203.548 122.478 207.266 126.277 210.256C126.548 210.469 126.909 210.211 126.756 209.885C124.838 205.791 122.147 202.166 119.479 198.527C113.948 189.701 106.503 193.762 100.209 199.128C98.9821 200.017 97.736 200.738 96.4745 200.423C96.5572 200.12 96.5798 199.769 96.5271 199.379C96.0585 195.923 96.5171 192.28 96.9935 188.852C98.0821 182.454 97.7586 174.111 103.935 170.237C106.63 168.715 109.89 168.522 112.513 170.25C112.032 171.429 111.457 172.756 111.375 174.003C110.848 173.632 110.492 173.748 110.397 174.551C112.44 180.571 115.786 186.102 118.624 191.779C120.841 196.038 123.07 200.293 125.345 204.522C126.016 205.831 126.583 207.219 127.892 207.945C127.895 207.957 127.897 207.97 127.9 207.982C128.785 210.899 128.785 214.034 129.467 217.002C129.886 218.815 130.367 220.638 130.881 222.45C131.368 224.151 131.882 225.843 132.403 227.509C138.612 248.995 144.493 270.582 150.546 292.117C143.379 288.416 139.745 281.497 136.466 274.426C127.814 256.204 118.752 236.315 109.07 219.503C118.075 238.616 130.427 283.39 145.809 294.521C148.156 296.073 150.714 297.242 153.384 298.169C154.5 299.178 155.669 299.396 156.454 299.128C161.288 300.483 166.351 301.261 171.103 302.255C179.343 303.983 187.585 305.698 195.83 307.406C198.619 307.982 201.42 308.753 204.268 308.888C204.411 308.896 204.549 308.891 204.677 308.873C198.401 316.08 194.175 325.918 191.761 335.14C189.794 334.575 187.565 336.67 186.996 338.869ZM116.229 339.663C102.285 360.564 80.4309 373.529 62.434 390.401C51.6513 401.747 43.0528 414.92 33.2183 427.06C32.9149 427.435 32.6087 427.811 32.303 428.184C31.5455 429.116 30.4926 430.14 29.883 431.044C29.8657 431.071 29.8481 431.096 29.8331 431.116C28.4085 428.144 29.1884 424.343 29.1357 420.955C29.3539 415.151 30.1137 409.397 31.2549 403.707C34.9809 380.866 47.81 360.536 50.6007 337.564C50.5079 313.133 49.2919 288.631 51.3529 264.207C52.1052 253.059 52.8951 241.907 54.0135 230.786C61.7371 259.445 84.2903 290.359 97.0941 310.151C102.259 317.715 106.884 325.968 114.158 331.755C115.916 333.142 117.772 334.334 119.702 335.361C118.396 336.655 117.277 338.13 116.229 339.663ZM161.905 227.897C163.826 227.393 168.066 226.89 170.27 225.443C171.411 229.348 172.644 233.223 173.946 237.075C170.787 236.143 167.369 236.58 164.115 236.935C159.876 237.397 155.642 237.9 151.41 238.426C147.534 238.908 143.66 239.409 139.788 239.923C138.407 234.976 137.016 230.033 135.603 225.095C143.68 228.833 153.259 229.354 161.905 227.897ZM166.301 190.682C166.294 190.354 166.216 190.011 166.045 189.658C166.02 189.608 165.997 189.558 165.972 189.508C165.313 187.157 164.644 184.808 163.962 182.462C163.859 182.066 163.232 182.144 163.244 182.559C163.239 182.85 163.237 183.138 163.234 183.428C163.189 183.308 163.147 183.188 163.104 183.065C162.259 180.619 161.639 178.1 161.231 175.541C168.468 177.03 174.428 192.806 177.796 204.084C175.027 203.222 171.396 203.027 170.321 205.318C168.986 200.438 167.663 195.555 166.301 190.682ZM155.073 284.094C156.877 283.976 158.681 283.864 160.484 283.739C164.174 283.484 167.863 283.217 171.552 282.956C172.437 282.894 173.322 282.829 174.207 282.764C176.713 282.626 179.218 282.488 181.724 282.354C184.495 282.207 187.297 281.956 190.089 281.853C190.614 281.842 191.14 281.833 191.665 281.828C191.768 282.038 191.875 282.245 191.991 282.441C188.313 283.458 184.953 284.635 182.259 285.822C176.141 288.498 170.258 292.022 165.233 296.451C164.303 296.258 163.372 296.063 162.442 295.865C159.889 295.314 157.304 294.726 154.814 293.887C154.177 292.327 153.969 290.494 153.427 288.957C152.998 287.416 152.568 285.875 152.138 284.334C153.12 284.317 154.123 284.156 155.073 284.094ZM148.984 271.493C149.018 271.49 149.05 271.486 149.083 271.482C149.087 271.482 149.091 271.482 149.096 271.482C149.498 271.469 149.901 271.453 150.303 271.435C151.108 271.397 151.912 271.349 152.716 271.292C154.325 271.178 155.931 271.025 157.535 270.85C160.748 270.5 163.951 270.062 167.157 269.654C169.046 269.413 170.928 269.207 172.809 269.031C177.207 268.739 181.618 268.516 186.011 268.454C187.417 271.797 188.844 275.13 190.284 278.455C190.419 278.765 190.551 279.103 190.685 279.453C184.227 279.33 177.741 279.942 171.306 280.326C167.699 280.542 164.091 280.752 160.484 280.973C158.68 281.084 156.876 281.207 155.073 281.324C153.869 281.403 152.575 281.351 151.37 281.578C151.116 280.664 150.861 279.749 150.606 278.836C149.939 276.467 149.279 274.096 148.617 271.725C148.746 271.663 148.87 271.586 148.984 271.493ZM143.489 253.253C142.454 249.513 141.418 245.773 140.376 242.035C140.572 242.008 140.768 241.981 140.963 241.954C141.694 241.854 142.426 241.754 143.157 241.654C144.768 241.435 146.38 241.219 147.992 241.005C149.242 240.84 150.491 240.678 151.741 240.516C153.122 240.399 154.502 240.288 155.884 240.186C162.129 239.726 168.424 239.3 174.69 239.264C176.006 243.071 177.392 246.855 178.828 250.62C173.498 250.944 168.174 251.373 162.852 251.8C159.791 252.046 156.73 252.301 153.67 252.565C152.182 252.693 150.693 252.824 149.205 252.957C148.378 253.03 147.552 253.105 146.725 253.18C146.247 253.223 145.624 253.385 145.087 253.389C145.017 253.334 144.944 253.28 144.867 253.227C144.475 252.957 143.898 253.005 143.489 253.253ZM144.735 256.409C148.25 255.981 151.757 255.521 155.269 255.094C157.218 254.905 159.166 254.718 161.115 254.537C167.308 253.96 173.507 253.459 179.7 252.89C181.381 257.225 183.126 261.536 184.912 265.829C177.329 265.329 169.606 266.601 162.108 267.482C158.105 267.952 154.091 268.376 150.062 268.526C149.424 268.549 148.532 268.516 147.767 268.686C146.726 264.944 145.689 261.201 144.653 257.458C144.668 257.11 144.695 256.761 144.735 256.409ZM206.997 306.425C206.731 306.678 206.47 306.938 206.212 307.206C206.217 307.121 206.219 307.038 206.217 306.953C206.222 306.95 206.227 306.948 206.229 306.945C206.46 306.72 206.716 306.547 206.997 306.425ZM202.305 199.306C210.101 218.191 216.834 237.61 224.136 256.725C226.478 263.216 228.785 269.718 230.967 276.266C231.794 278.43 232.098 280.859 233.798 282.559C233.868 282.629 233.946 282.694 234.029 282.749C231.744 283.707 229.681 284.772 228.019 285.848C228.783 288.436 229.706 290.977 230.808 293.428C231.202 294.303 229.905 295.067 229.509 294.186C228.108 291.071 226.978 287.829 226.092 284.524C224.988 283.038 223.712 281.705 222.057 280.874C218.865 279.714 214.841 279.314 210.502 279.444C210.432 279.319 210.339 279.199 210.227 279.086C208.789 277.704 208.22 275.505 207.506 273.675C205.427 268.334 203.659 262.868 202.207 257.321C200.778 251.83 199.893 246.208 198.408 240.73C198.107 239.771 197.172 235.138 196.299 235.394C196.317 235.499 196.332 235.601 196.347 235.707C196.302 235.677 196.252 235.664 196.202 235.667C195.851 247 198.817 258.415 202.215 269.185C203.155 272.773 205.292 276.131 205.976 279.752C203 280.06 199.965 280.566 197.024 281.204C196.981 280.966 196.921 280.731 196.851 280.493C196.811 280.163 196.71 279.902 196.565 279.704C196.194 278.798 195.702 277.914 195.339 277.098C194.592 275.41 193.849 273.722 193.115 272.027C189.115 262.757 185.329 253.387 181.988 243.857C177.869 232.301 174.501 220.522 171.251 208.711C173.428 209.875 177.613 207.549 180.178 212.865C180.732 214.205 181.963 215.161 183.491 214.743C184.83 214.375 185.843 212.815 185.371 211.435C185.304 211.21 185.231 210.987 185.148 210.769C182.648 203.365 180.624 195.765 177.019 188.797C186.274 189.731 197.222 190.394 202.305 199.306ZM288.516 323.076C289.316 326.855 288.802 330.829 288.586 334.675C284.928 329.819 280.291 325.675 274.867 322.916C274.506 320.487 272.974 318.371 272.266 316.012C270.96 312.685 269.902 309.284 268.949 305.851C277.794 307.692 286.402 314.107 288.516 323.076ZM256.45 352.02C259.453 368.202 264.222 383.977 267.716 400.049C267.921 400.993 266.47 401.393 266.265 400.449C262.771 384.376 258.002 368.601 254.999 352.42C254.823 351.473 256.273 351.071 256.45 352.02ZM254.909 500.791C257.305 501.126 259.697 501.419 262.108 501.674C257.308 503.679 252.832 503.189 248.927 499.645C250.926 500.131 252.941 500.503 254.909 500.791ZM360.663 524.635C360.528 523.993 360.173 523.576 359.725 523.351C359.793 509.884 331.446 505.507 322.856 496.931C318.927 494.157 316.068 489.575 311.504 487.857C314.086 483.867 313.392 478.732 312.819 474.248C311.566 466.067 308.417 456.924 307.593 451.867C301.38 425.873 295.354 399.816 288.323 374.028C288.18 373.534 287.914 372.558 287.58 371.479C288.338 371.661 289.062 371.721 289.742 371.634C299.604 369.45 297.39 349.528 295.073 342.309C294.825 341.458 294.245 340.92 293.566 340.667C293.654 340.226 293.574 339.758 293.26 339.31C293.092 339.069 292.834 338.896 292.553 338.809C292.254 331.958 293.967 324.594 290.356 318.334C286.299 311.488 276.62 305.824 268.831 305.426C267.715 301.389 266.738 297.313 265.659 293.269C264.476 289.034 262.79 284.485 259.247 281.645C254.663 277.574 244.879 278.815 236.762 281.693C237.206 279.572 236.195 277.654 235.576 275.665C233.557 269.716 231.478 263.786 229.357 257.875C221.741 237.943 215.487 217.282 205.961 198.172C202.017 191.694 194.431 188.774 187.149 188.173C183.734 187.83 180.1 187.697 176.652 188.101C176.542 187.89 176.429 187.682 176.314 187.475C173.488 182.584 167.753 173.48 161.153 175.042C160.456 170.392 160.446 165.627 161.02 160.975C161.06 160.644 160.518 160.501 160.383 160.802C156.01 170.598 156.822 182.652 162.158 191.927C162.549 192.57 163.081 192.903 163.633 192.998C164.483 202.736 166.607 212.347 169.227 221.779C168.834 221.794 168.455 221.877 168.139 222.017C159.779 225.075 150.586 225.573 141.885 223.788C139.434 223.272 137.062 222.578 134.678 221.872C134.226 220.31 133.775 218.752 133.321 217.192C132.183 212.264 131.892 207.529 129.003 203.56C128.832 203.267 128.657 202.977 128.489 202.686C126.169 198.485 123.812 194.305 121.438 190.136C120.861 189.453 117.004 181.863 114.003 177.273C114.379 177.263 114.768 177.168 115.146 176.978C117.262 175.924 117.24 172.866 117.626 170.815C118.81 164.443 120.179 158.06 120.555 151.577C120.575 151.247 120.069 151.106 119.92 151.407C117.034 157.121 115.033 163.236 112.897 169.258C112.854 169.378 112.809 169.501 112.762 169.626C110.781 167.132 107.302 166.539 104.273 167.21C99.2105 168.529 96.6575 172.638 95.1856 177.311C80.629 184.249 63.3066 177.163 54.4724 195.52C50.4931 205.113 50.5683 215.99 53.1459 227.311C46.433 261.628 44.3317 296.734 45.7287 331.652C45.2319 355.273 30.723 375.765 26.5654 398.752C24.4916 407.812 23.1902 417.099 23.3509 426.406C23.0325 431.324 25.204 438.586 31.5129 436.673C32.2326 436.415 32.8848 436.019 33.4864 435.541C36.1218 475.364 66.8551 483.067 102.277 476.208C103.711 476.233 105.121 475.903 106.628 475.48C107.36 475.262 108.087 475.034 108.814 474.794C109.361 474.663 109.91 474.531 110.459 474.393C110.866 474.31 111.274 474.231 111.682 474.151C121.782 467.483 132.272 461.408 142.251 454.552C142.954 454.068 143.815 455.192 143.162 455.732C136.496 461.237 129.971 466.982 123.036 472.157C142.796 469.02 162.904 469.554 181.354 461.425C194.301 455.768 206.485 444.433 213.822 432.203C213.933 432.397 214.041 432.592 214.151 432.787C213.795 431.775 213.438 430.763 213.086 429.75C206.831 411.764 201.172 393.566 194.335 375.785C193.987 374.88 195.442 374.492 195.786 375.386C197.703 380.371 199.53 385.39 201.301 390.429C207.638 408.461 213.302 426.728 220.051 444.616C220.09 444.719 220.103 444.814 220.1 444.903C221.51 448.374 222.663 451.91 223.462 455.535C224.29 459.328 225.501 467.43 226.699 474.248C227.749 479.871 228.513 486.393 232.423 490.709C232.419 490.718 232.415 490.727 232.41 490.736H232.41C232.272 491.004 232.14 491.27 232.012 491.535C232.289 491.811 232.641 491.991 232.966 492.197C233.016 491.961 233.065 491.726 233.121 491.485C234.072 492.493 235.127 493.399 236.261 494.216C234.983 503.66 225.458 512.808 230.39 522.693C228.039 528.096 233.809 532.493 238.557 533.608C245.837 535.933 253.35 537.681 260.805 539.34C275.566 542.088 321.762 552.246 332.82 544.339C332.662 542.651 334.74 537.168 332.287 537.087C333.375 536.015 334.276 534.762 334.959 533.401C341.727 535.601 349.248 534.813 356.139 534.001C361.712 534.122 361.507 528.7 360.663 524.635Z" fill="black"/>
<path fill-rule="evenodd" clip-rule="evenodd" d="M188.071 95.9478C185.494 86.6364 175.641 82.5734 166.767 81.9286C142.742 79.4294 118.287 92.8318 107.636 114.564C99.1095 131.066 98.8425 148.402 117.17 157.824C118.171 158.376 119.216 158.966 120.283 159.502C121.211 160.365 122.166 161.194 123.208 161.89C133.188 168.457 145.437 171.297 157.308 170.681C174.834 170.328 181.091 158.427 184.92 143.165C188.958 127.971 191.216 111.485 188.071 95.9478Z" fill="#D08B5B"/>
<path fill-rule="evenodd" clip-rule="evenodd" d="M199.576 183.714C198.758 181.238 197.732 178.837 196.774 176.41C196.571 175.201 196.436 173.981 196.401 172.752C196.268 168.36 197.089 163.93 198.01 159.654C199.882 150.962 201.866 142.361 202.862 133.509C204.641 117.677 203.583 101.213 196.386 86.7596C190.15 74.2396 179.583 64.0008 165.933 60.1647C161.898 59.0301 157.745 58.4044 153.563 58.1545C153.045 58.0721 152.528 57.9914 152.014 57.9138C146.198 57.0364 140.31 56.5992 134.431 56.9776C124.682 57.6053 115.024 60.4088 106.905 65.9537C98.7298 71.5368 92.9214 79.3653 90.2187 88.9138C87.4071 98.8472 87.6456 109.605 82.7904 118.918C81.3561 121.669 79.6818 124.285 78.085 126.944C73.8484 131.675 69.2487 136.933 68.2408 143.437C66.9971 151.475 71.6189 158.269 75.9929 164.541C79.9465 170.205 85.3114 178.028 81.2427 185.002C79.3234 188.292 76.2481 190.753 73.9385 193.753C71.5438 196.868 69.6746 200.444 68.7087 204.265C66.8945 211.441 68.5635 218.921 73.4155 224.53C75.9428 227.449 79.1883 229.38 82.7015 230.885C86.2973 232.422 89.8106 233.882 92.7833 236.499C94.142 237.693 95.3857 239.003 96.5618 240.375C97.6578 242.09 98.934 243.693 100.373 245.16C101.957 246.775 105.06 244.564 103.606 242.664C103.498 242.523 103.393 242.386 103.285 242.245C102.222 240.858 101.153 239.471 100.035 238.129C96.6994 232.84 95.4157 226.365 97.0747 220.188C97.5051 218.583 98.1107 217.06 98.8641 215.623C99.024 216.041 99.1992 216.454 99.3844 216.862C100.105 218.445 101.116 220.32 102.402 221.923C102.452 223.022 102.618 224.111 102.938 225.178C104.919 231.791 111.546 235.054 117.521 237.593C118.107 237.843 118.685 238.084 119.253 238.322C120.814 238.975 122.466 236.749 121.492 235.407C121.237 235.054 120.989 234.693 120.754 234.328C117.951 229.986 116.618 224.793 117.373 219.619C118.169 214.148 121.392 209.621 124.593 205.276C127.735 201.005 131.111 196.645 132.517 191.434C134.074 185.678 132.657 179.938 130.255 174.64C128.056 169.791 125.126 165.323 122.669 160.608C123.51 161.447 124.378 162.259 125.272 163.042C126.278 163.923 127.311 164.931 128.503 165.552C129.384 166.011 130.267 164.913 129.569 164.17C128.652 163.194 127.478 162.44 126.459 161.568C125.482 160.732 124.532 159.863 123.606 158.969C122.466 157.87 121.381 156.719 120.335 155.532C119.498 153.399 118.808 151.208 118.247 148.984C117.483 145.974 116.778 142.772 116.833 139.652C116.888 136.451 118.549 134.21 120.762 132.062C121.698 131.152 122.644 130.253 123.588 129.353C125.599 127.876 127.496 126.225 129.338 124.58C132.621 121.647 135.797 118.548 138.829 115.357C139.643 114.501 140.45 113.636 141.246 112.761C144.03 109.902 146.685 106.917 149.188 103.829C151.675 102.923 154.065 101.724 156.307 100.311C155.331 101.3 154.345 102.277 153.364 103.261C151.179 105.454 148.91 107.658 146.378 109.446C146.117 109.631 146.275 110.024 146.595 109.962C149.816 109.318 152.828 108.246 155.641 106.539C158.501 104.801 161.021 102.44 163.373 100.071C164.704 99.4699 165.988 98.6962 167.162 97.935C167.224 97.8949 167.287 97.8524 167.349 97.812C166.193 101.478 164.497 105.63 160.881 106.937C160.763 106.979 160.771 107.175 160.911 107.167C163.957 106.988 166.405 105.617 168.338 103.618C169.893 102.499 171.376 101.313 172.792 100.021C174.163 98.7703 175.462 97.4287 176.695 96.0395C174.971 99.4572 173.04 102.799 171.135 106.103C171.035 106.278 171.245 106.516 171.426 106.393C175.447 103.669 178.497 100.154 180.992 95.9966C181.36 95.3847 181.712 94.7627 182.055 94.1359C181.796 95.1167 181.513 96.0913 181.211 97.0608C180.663 98.8159 180.124 100.575 179.575 102.329C179.279 103.275 178.919 104.199 178.523 105.107C178.24 105.757 177.869 106.406 177.811 107.119C177.808 107.166 177.859 107.198 177.9 107.187C179.504 106.786 180.997 104.956 182.14 103.823C182.776 103.191 183.372 102.499 183.92 101.768C184.022 105.976 184.092 110.185 184 114.406C183.827 122.159 183.327 129.909 182.686 137.636C182.12 144.467 181.702 151.636 177.894 157.573C174.946 162.168 170.167 165.347 164.975 166.888C164.517 167.025 164.056 167.148 163.593 167.258C156.076 169.044 148.59 167.02 141.943 163.445C139.947 162.37 138.24 165.285 140.167 166.484C147.378 170.977 156.519 172.507 164.682 170.493C164.424 180.141 169.176 189.293 173.903 197.476C176.548 202.056 179.195 206.606 181.065 211.571C182.651 215.788 183.729 220.163 184.092 224.662C184.523 229.966 184.1 235.299 183.359 240.558C183.319 240.843 183.279 241.131 183.236 241.416C183.071 242.546 184.085 243.492 185.183 242.914C190.04 240.36 192.135 234.916 193.408 229.883C194.599 225.168 195.408 220.361 195.858 215.52C196.519 217.346 197.054 219.216 197.469 221.124C197.527 221.397 197.582 221.67 197.637 221.943C197.952 223.538 200.365 223.425 200.75 221.943C200.82 221.675 200.888 221.407 200.95 221.137C202.94 213.086 203.475 204.69 202.424 196.46C201.871 192.13 200.948 187.859 199.576 183.714Z" fill="black"/>
<path fill-rule="evenodd" clip-rule="evenodd" d="M174.172 146.69C173.345 147.77 171.846 148.598 170.169 148.993C168.57 149.371 166.802 149.355 165.277 148.775L165.146 148.723C164.006 148.25 162.912 147.295 162.496 146.299C162.331 145.902 162.275 145.5 162.388 145.124C162.49 144.786 162.728 144.475 163.125 144.208C163.25 144.124 163.417 144.118 163.577 144.146C163.775 144.181 163.969 144.273 164.087 144.398C164.74 145.091 165.686 145.766 166.807 145.754C167.671 145.746 168.377 145.405 169.062 145.02L169.543 144.744C170.007 144.48 170.478 144.231 171.01 144.118C171.964 143.915 173.12 144.286 173.824 144.899C174.132 145.166 174.355 145.48 174.416 145.819C174.467 146.103 174.395 146.399 174.172 146.69ZM169.216 127.796C171.109 128.945 173.994 131.625 171.957 134.475C169.56 136.987 166.107 134.106 164.406 132.804C162.829 131.794 161.056 134.391 162.52 135.57C174.813 144.658 179.802 128.096 170.173 126.445C169.113 126.263 168.72 127.44 169.216 127.796ZM147.853 110.131L148.397 109.982L148.952 109.833L149.327 109.734C151.903 109.06 154.745 108.468 157.3 108.757C158.232 108.863 158.988 109.386 159.12 110.361C159.231 111.184 158.699 112.245 157.793 112.391C154.792 112.876 151.72 112.719 148.706 113.218C147.204 113.467 145.714 113.776 144.219 114.054C143.082 114.266 141.907 114.34 140.76 114.511L141.023 114.548C141.116 114.561 141.092 114.716 141.001 114.709C140.623 114.672 140.245 114.666 139.866 114.692L139.703 114.706C139.456 114.74 139.31 114.445 139.53 114.296C140.928 113.349 142.114 112.323 143.678 111.625C145.032 111.021 146.425 110.524 147.853 110.131ZM171.309 108.679C173.29 106.68 177.503 107.448 179.859 108.363C181.204 108.885 182.483 109.545 183.549 110.533L183.652 110.63L183.812 110.784C184.531 111.487 185.333 112.454 185.219 113.468C185.202 113.622 185.118 113.799 184.943 113.83C183.999 113.997 183.072 113.499 182.2 113.2L181.623 113.002C180.756 112.708 179.884 112.426 178.99 112.222C177.879 111.97 176.745 111.824 175.604 111.839C174.451 111.854 173.212 112.179 172.113 111.721C170.888 111.212 170.253 109.745 171.309 108.679ZM151.738 124.807C151.233 125.322 150.565 125.613 149.711 125.44C149.043 125.305 147.772 124.635 146.757 123.602C146.062 122.896 145.481 122.014 145.323 120.992C145.287 120.754 145.161 120.602 144.995 120.506C144.864 120.43 144.692 120.392 144.504 120.411C144.344 120.428 144.175 120.485 144.044 120.562C143.795 120.707 143.693 120.914 143.672 121.068C143.473 122.556 144.048 124.033 144.946 125.278C146.157 126.958 147.935 128.19 148.981 128.478C150.77 128.971 152.655 128.579 154.044 127.335C155.156 126.341 155.725 125.046 156.254 123.714L156.356 123.456C156.475 123.154 156.592 122.854 156.717 122.557C156.968 121.963 156.888 121.449 156.645 121.048C156.376 120.604 155.879 120.292 155.326 120.196C154.815 120.107 154.268 120.204 153.836 120.516C153.472 120.779 153.178 121.196 153.073 121.813C152.903 122.816 152.509 123.968 151.814 124.727L151.738 124.807ZM182.412 119C181.995 118.783 181.669 118.718 181.207 118.856C180.951 118.933 180.699 119.08 180.501 119.278C180.305 119.473 180.163 119.717 180.108 119.987C179.973 120.654 179.608 121.278 179.087 121.684C178.642 122.032 178.081 122.216 177.458 122.112C176.786 122 176.145 121.57 175.704 121.062C175.581 120.921 175.481 120.763 175.383 120.604L175.325 120.508C175.108 120.15 174.897 119.817 174.597 119.554C174.483 119.454 174.312 119.384 174.146 119.384C174.079 119.384 174.01 119.395 173.945 119.416C173.276 120.086 173.148 120.595 173.169 121.099C173.192 121.628 173.401 122.164 173.738 122.664C174.53 123.836 176.033 124.797 177.048 125.015C178.437 125.313 179.817 124.955 180.923 124.18C182.061 123.383 182.905 122.145 183.168 120.75C183.231 120.414 183.204 120.052 183.076 119.737C182.951 119.43 182.733 119.167 182.412 119Z" fill="black"/>
</g>
<defs>
<clipPath id="clip0_27_368">
<rect width="413" height="626" fill="white"/>
</clipPath>
</defs>
</svg>
