<svg width="500" height="700" viewBox="0 0 559 755" fill="none" xmlns="http://www.w3.org/2000/svg">
<path fill-rule="evenodd" clip-rule="evenodd" d="M297.169 295.451C311.504 296.159 333.825 302.307 334.941 306.236C336.683 312.372 332.939 335.374 339.201 347.764C341.871 353.046 352.009 352.573 355.937 354.293C369.08 360.048 407.99 370.963 416.012 384.707C419.226 390.213 438.978 458.535 449.473 493.391C450.656 497.321 451.993 500.955 453.446 504.321L453.98 501.706C458.259 480.639 460.399 467.885 460.399 463.446C460.399 456.508 454.867 427.238 460.399 419.794C465.875 412.425 479.073 406.4 485.011 406.28L485.189 406.278C489.087 406.278 492.47 405.059 495.338 402.621L499.541 400.506C520.926 389.771 533.42 383.883 537.023 382.84C542.773 381.178 552.558 384.72 547.666 390.039C544.404 393.585 536.208 399.857 523.077 408.856L518.125 412.791L518.724 413.104C525.122 416.474 528.885 419.31 530.011 421.613C531.172 423.987 530.615 426.795 528.34 430.037L528.685 430.374C531.561 433.197 533 435.092 533 436.056V440.767C535.861 444.96 536.576 448.456 535.146 451.256C533.715 454.056 531.446 456.483 528.34 458.535C526.051 464.559 523.325 468.846 520.163 471.396C517 473.947 511.534 476.07 503.764 477.766L496.734 494.583L491.037 518.209L488.166 544.572L489 545.175C492.863 547.99 495.338 550.077 495.338 552.233C495.338 555.592 479.75 634.591 455.499 638.127C450.254 638.892 423.053 635.141 414.123 627.873L414.254 628.658C416.356 641.355 415.911 647.949 412.921 648.439C376.169 654.467 271.791 656.329 99.7869 654.026C98.7636 562.7 103.391 501.877 113.669 471.56C139.956 394.021 168.938 367.537 179.078 365.269C187.959 363.282 218.758 351.019 227.367 347.764C232.987 345.64 234.191 339.27 240.595 339.27L241.113 339.273C247.306 339.335 252.799 340.443 255.884 337.257C263.982 328.894 261.718 317.319 265.078 306.236C266.929 300.13 279.578 294.583 297.169 295.451Z" fill="#D08B5B"/>
<path d="M240.595 339.271L241.113 339.273C242.644 339.289 244.132 339.368 245.551 339.43L242.56 349.624L242.496 350.694C240.554 385.839 257.757 402.663 294.106 401.167C330.454 399.67 348.535 388.169 348.346 366.662L348.335 366.008L348.335 352.624L348.907 352.734C351.666 353.251 354.325 353.587 355.937 354.293C369.08 360.048 407.99 370.963 416.012 384.707C419.226 390.214 438.978 458.536 449.473 493.392C449.857 494.665 450.256 495.908 450.671 497.12L450.671 504.009L450.557 504.427C446.878 518.19 451.776 529.443 465.25 538.185C474.8 544.382 484.608 548.404 494.674 550.253C495.106 550.922 495.338 551.574 495.338 552.234C495.338 555.593 479.75 634.592 455.499 638.127C450.254 638.892 423.054 635.142 414.123 627.874L414.254 628.659L414.377 629.413C416.337 641.617 415.851 647.959 412.921 648.44C376.169 654.467 271.791 656.33 99.7869 654.027C98.7636 562.7 103.391 501.878 113.669 471.56C139.956 394.021 168.938 367.537 179.078 365.269C187.959 363.282 218.758 351.02 227.367 347.765C232.987 345.64 234.191 339.271 240.595 339.271Z" fill="#079911"/>
<path fill-rule="evenodd" clip-rule="evenodd" d="M257.785 317.348C258.627 315.68 260.86 315.896 262.334 316.653C266.754 319.885 262.129 326.152 260.906 330.097C257.761 337.748 252.298 345.226 244.756 348.803C245.381 356.409 246.089 363.999 246.351 371.629C255.993 383.594 272.25 387.961 286.681 391.319C309.346 397.59 334.927 384.742 342.576 362.33C333.87 357.381 331.053 344.424 333.65 335.384C333.876 334.749 334.86 334.468 335.21 335.177C337.594 340.082 337.276 346.067 339.987 350.913C366.002 353.405 399.576 363.224 416.619 384.271C424.172 394.801 427.164 408.495 430.884 420.699C438.821 445.858 445.146 471.526 452.93 496.71L453.848 491.945C456.362 478.818 458.648 465.514 456.949 452.164L456.919 451.525C456.364 440.903 453.041 421.164 461.275 413.993C468.724 408.299 479.514 403.723 488.861 406.348C505.495 398.943 519.852 386.474 537.567 381.618C543.019 380.495 550.863 381.824 549.574 389.224C546.003 402.165 531.046 407.188 520.822 413.861C527.376 415.638 535.366 423.611 530.245 430.564C530.201 430.687 530.161 430.781 530.122 430.854C534.275 432.695 534.856 437.323 533.837 441.291C533.734 442.339 533.458 441.438 534.074 442.388C538.759 446.809 536.688 459.132 529.63 459.548C530.092 465.387 526.343 471.058 521.594 474.243C516.476 477.674 509.076 477.822 504.839 482.518C494.89 500.067 491.458 520.783 490.374 540.879C496.932 543.334 502.816 550.677 496.858 556.907C496.74 556.921 496.622 556.935 496.503 556.944C493.049 566.165 491.716 575.994 489.889 585.624C487.079 602.056 479.755 617.142 470.403 630.83C459.589 648.949 430.507 646.077 415.857 634.383C415.915 637.451 416.421 640.501 415.438 643.465C413.989 646.665 410.454 645.282 410.104 642.132C402.359 646.489 400.535 632.107 409.145 634.388C408.482 623.991 408.099 613.579 407.787 603.164C398.04 606.32 397.62 590.143 407.59 593.377L407.578 588.905C407.505 554.613 407.883 520.203 412.407 486.181C412.825 483.636 413.534 481.174 413.947 478.644C413.992 478.383 414.4 478.457 414.402 478.707C415.102 526.34 411.99 574.073 415.237 621.722C417.94 622.546 419.017 625.649 421.019 627.457C425.462 631.56 431.512 633.558 437.429 634.254C453.997 636.578 461.15 631.516 468.529 617.11C465.201 619.334 460.704 615.406 462.732 611.885L462.796 611.778C464.903 608.047 470.851 610.283 470.098 614.461C477.516 602.578 481.398 589.178 484.266 575.582L484.654 573.957C486.048 568.185 487.856 561.571 491.204 556.349C470.791 551.145 450.824 535.288 447.63 513.533C442.447 529.822 435.426 545.744 428.734 561.587C426.668 567.095 425.806 573.017 422.844 578.127C422.155 579.308 420.408 579.003 420.019 577.757C417.355 565.841 425.428 554.507 429.619 543.781C433.042 537.718 442.867 510.035 448.958 509.968C442.113 479.955 432.984 450.167 424.289 420.528C415.882 380.507 398.75 372.79 362.455 360.189C369.002 393.563 398.89 425.868 382.986 460.873L382.599 461.781C380.972 465.641 379.621 469.53 380.757 473.766C381.859 477.876 384.369 481.445 386.377 485.142C397.6 506.025 389.874 530.413 385.535 552.16C380.053 577.663 374.638 603.189 368.971 628.653C367.854 633.733 367.131 638.966 365.443 643.889C364.572 646.429 360.227 646.188 360.508 643.225C361.044 637.475 362.658 631.868 363.84 626.222C370.896 589.666 380.442 553.54 386.513 516.824C390.417 489.645 375.045 485.469 375.619 467.908C377.708 458.926 383.239 450.911 382.921 441.34C384.151 412.042 362.818 387.871 360.184 359.376L355.534 357.717C353.21 356.885 350.889 356.046 348.574 355.187C360.756 440.411 357.057 527.497 350.967 613.142C349.723 617.094 350.907 657.499 345.691 655.049C345.428 656.592 344.609 658.108 342.827 658.1C326.653 658.249 310.473 658.505 294.299 658.698C286.518 657.98 275.825 660.952 269.207 656.461C261.567 654.28 260.688 620.781 258.646 613.403L257.849 608.037C244.866 520.359 233.248 430.873 242.58 342.327C229.596 342.826 226.917 356.844 225.954 367.051C223.546 389.579 208.996 408.979 208.298 431.765C208.239 437.293 209.282 442.649 211.491 447.724C217.352 460.16 227.488 474.537 219.912 488.426C210.953 499.238 211.729 502.084 215.016 515.446C224.266 559.618 239.626 602.084 254.239 644.673C251.064 661.226 231.967 599.773 230.171 595.14C221.717 599.392 217.1 585.28 226.796 584.275C220.568 563.422 214.837 542.412 210.065 521.171L209.938 520.572C207.831 510.759 203.685 499.267 210.686 490.561C228.738 472.299 198.759 451.886 202.541 429.762C199.276 432.184 194.333 429.636 194.407 425.567C194.259 420.987 200.409 418.641 203.368 422.136C206.411 404.186 216.997 388.516 220.2 370.619L220.345 369.778C221.43 363.453 221.736 356.798 224.842 351.033C220.615 353.78 216.113 356 211.482 357.959C219.761 364.877 203.729 371.191 205.056 360.504C159.653 373.645 149.39 391.97 132.72 434.054C135.834 431.028 141.168 434.944 139.304 438.804C137.817 442.87 131.33 441.681 131.332 437.347L130.573 439.16C120.464 463.34 111.264 488.107 106.64 513.984C115.71 512.703 113.401 527.204 105.183 523.116C101.885 546.129 101.833 569.469 102.236 592.668C109.886 588.655 110.117 602.292 102.31 598.403C102.595 617.415 103.013 636.426 103.328 655.438C103.392 659.484 97.1528 659.465 97.0544 655.438C96.3256 626.226 94.9975 596.961 95.6288 567.74C95.0349 517.024 109.609 468.141 131.325 422.71C150.539 370.399 177.079 364.45 225.91 349.24C230.417 342.547 240.047 336.216 247.904 340.419C252.3 333.321 254.532 324.911 257.785 317.348ZM174.124 499.664C174.306 499.019 175.226 499.181 175.255 499.816C175.664 508.022 175.3 516.282 174.739 524.523C174.399 529.554 173.981 534.58 173.627 539.577C172.687 552.76 171.929 565.958 171.353 579.165C171.555 579.081 171.762 579.007 171.978 578.949C172.972 578.677 173.967 578.677 174.96 578.949C175.847 579.196 176.622 579.629 177.289 580.254L177.43 580.391C177.977 580.897 178.365 581.498 178.592 582.193C178.914 582.81 179.077 583.47 179.077 584.176L179.073 584.354C179.069 585.367 178.818 586.307 178.306 587.184C177.809 588.026 177.14 588.695 176.299 589.197C175.423 589.705 174.482 589.956 173.469 589.96C173.361 589.97 173.252 589.98 173.144 589.985C172.391 590.015 171.688 589.857 171.038 589.518L170.94 589.488C170.694 596.188 170.492 602.892 170.344 609.597C170.212 615.44 170.034 621.284 169.916 627.126L169.862 630.05L169.754 636.509C169.72 639.166 169.737 641.71 168.834 644.215L168.726 644.504C168.076 646.177 167.57 648.506 165.832 649.437C164.444 650.179 162.575 649.904 161.777 648.456C161.108 647.246 161.688 645.503 162.678 644.686C162.658 644.632 162.629 644.583 162.604 644.529C162.452 644.085 162.22 643.667 162.083 643.219C161.649 641.801 161.768 640.29 161.763 638.818C161.763 636.219 161.851 633.62 161.92 631.025C162.073 625.502 162.25 619.984 162.466 614.466C163.197 595.954 164.574 577.442 166.152 558.982L166.687 552.752C167.4 544.467 168.138 536.172 169.183 527.93C169.232 527.536 169.282 527.142 169.336 526.748C168.775 526.468 168.253 526.079 167.839 525.646C166.182 523.904 165.176 521.301 164.233 519.058L164.016 518.547C162.993 516.155 162.048 513.733 161.561 511.163L161.514 510.927C161.292 509.832 160.853 507.893 162.014 507.363C162.619 507.087 163.002 507.284 163.2 507.889C163.225 507.968 163.204 508.057 163.16 508.126C163.637 508.859 164.385 509.543 164.858 510.223L166.475 512.536L167.274 513.698C168.288 515.19 169.37 516.617 170.487 518.025C171.368 511.842 172.446 505.684 174.124 499.664ZM240.426 637.445C242.449 635.859 245.741 636.721 245.741 639.645C245.741 642.584 242.444 643.431 240.426 641.845L240.326 641.771L240.229 641.693C239.131 640.834 239.094 638.599 240.146 637.667L240.229 637.598C240.293 637.543 240.357 637.494 240.426 637.445ZM152.497 631.734C153.412 631.734 154.263 631.966 155.055 632.429C155.4 632.69 155.739 632.955 156.084 633.221C156.714 633.851 157.147 634.6 157.388 635.461L157.57 636.81C157.595 637.509 157.452 638.158 157.132 638.764C156.925 639.394 156.576 639.94 156.084 640.399C155.621 640.896 155.08 641.245 154.451 641.447C153.895 641.74 153.303 641.889 152.67 641.889L152.497 641.885C151.577 641.885 150.725 641.654 149.933 641.191C149.588 640.93 149.249 640.664 148.905 640.399C148.28 639.769 147.842 639.02 147.601 638.158C147.541 637.71 147.483 637.258 147.418 636.81C147.394 636.111 147.541 635.461 147.856 634.855C148.063 634.225 148.412 633.679 148.905 633.221C149.368 632.724 149.908 632.374 150.538 632.172C151.093 631.88 151.689 631.731 152.323 631.731L152.497 631.734ZM382.671 622.372L383.961 622.545C385.196 622.825 386.189 623.736 386.854 624.775C387.208 625.331 387.4 625.932 387.429 626.576C387.573 627.216 387.543 627.861 387.341 628.506C387.193 629.136 386.903 629.687 386.475 630.155C386.328 630.387 386.155 630.598 385.959 630.785C385.555 631.46 384.945 631.902 384.315 632.356C383.784 632.695 383.207 632.878 382.587 632.907C382.179 633.015 381.766 633.015 381.352 632.907C380.737 632.878 380.161 632.695 379.63 632.356C379.315 632.115 379.001 631.868 378.69 631.627C378.415 631.307 378.159 630.977 377.918 630.633C377.756 630.254 377.598 629.879 377.441 629.505C377.15 628.604 377.293 627.807 377.451 626.906C377.475 626.754 377.514 626.616 377.569 626.468L377.675 626.182C377.958 625.434 378.109 625.18 378.611 624.529L378.803 624.273C378.898 624.145 378.997 624.02 379.109 623.908C379.423 623.583 379.872 623.312 380.225 623.032C380.983 622.594 381.8 622.377 382.671 622.372ZM215.768 619.221C216.481 619.226 217.151 619.403 217.771 619.763L218.578 620.388C219.07 620.885 219.409 621.466 219.601 622.141C219.645 622.494 219.695 622.849 219.744 623.199C219.764 623.745 219.651 624.257 219.399 624.735C219.242 625.227 218.966 625.65 218.578 626.015C218.219 626.399 217.79 626.674 217.298 626.837C216.869 627.061 216.407 627.179 215.916 627.18L215.768 627.176C215.049 627.176 214.38 626.994 213.76 626.634L212.953 626.015C212.461 625.517 212.122 624.932 211.93 624.257C211.885 623.903 211.836 623.553 211.787 623.199C211.767 622.652 211.88 622.141 212.131 621.668C212.294 621.176 212.564 620.747 212.953 620.388C213.312 619.999 213.74 619.723 214.233 619.566C214.662 619.34 215.116 619.226 215.604 619.219L215.768 619.221ZM183.129 617.592C184.156 617.582 185.2 617.873 186.042 618.468C186.858 619.049 187.478 619.674 187.877 620.615C187.985 620.871 188.093 621.122 188.187 621.378C188.61 622.505 188.689 623.637 188.103 624.74C187.538 625.808 186.317 626.276 185.224 626.595C184.3 626.871 183.252 626.916 182.331 626.586C181.874 626.423 181.426 626.251 181.013 626C180.24 625.523 179.822 624.956 179.305 624.257C178.902 623.568 178.7 622.82 178.7 622.023C178.7 621.22 178.902 620.477 179.305 619.783C180.097 618.429 181.564 617.602 183.129 617.592ZM130.968 618.543C132.268 618.543 133.409 619.143 134.192 620.157C134.984 621.186 135.274 622.466 134.925 623.742C134.555 625.09 133.439 626.271 132.056 626.611C131.033 626.862 130.196 626.852 129.177 626.68C128.316 626.532 127.657 626.02 126.997 625.488C126.244 624.873 126.013 623.751 126.136 622.845C126.254 621.939 126.673 621.349 127.308 620.812L127.312 620.797L127.076 620.979C127.165 620.901 127.253 620.817 127.342 620.733C127.371 620.684 127.396 620.63 127.42 620.576C127.784 619.956 128.277 619.468 128.892 619.104C129.536 618.73 130.225 618.543 130.968 618.543ZM433.886 603.631C434.6 603.439 435.318 603.439 436.032 603.631C436.559 603.754 437.016 603.996 437.405 604.354C437.799 604.611 438.121 604.94 438.365 605.348L438.443 605.487C439.004 606.442 439.092 607.535 438.851 608.598C438.552 609.912 437.341 611.109 436.032 611.419L435.988 611.427L435.944 611.439C435.412 611.606 434.875 611.631 434.344 611.508C433.807 611.483 433.31 611.326 432.853 611.03C432.273 610.656 431.786 610.174 431.412 609.593C431.116 609.13 430.959 608.633 430.934 608.096C430.841 607.742 430.841 607.387 430.934 607.033C430.959 606.496 431.116 605.999 431.412 605.536L432.041 604.724L432.105 604.67C432.607 604.167 433.202 603.823 433.886 603.631ZM384.344 577.58C390.795 577.58 390.786 587.593 384.344 587.593C377.894 587.593 377.903 577.58 384.344 577.58ZM148.156 576.316C148.836 576.163 149.515 576.193 150.189 576.404C150.598 576.576 151.001 576.749 151.405 576.916L152.438 577.714C152.63 577.876 152.723 578.053 152.9 578.285L153.122 578.574C153.442 579.003 153.45 579.094 153.801 580.008C154.037 580.884 154.037 581.76 153.801 582.637C153.687 583.06 153.516 583.458 153.294 583.828C153.092 584.182 152.849 584.493 152.577 584.779L152.438 584.921C151.975 585.418 151.429 585.767 150.799 585.974C150.401 586.206 149.973 586.319 149.515 586.319C148.836 586.471 148.156 586.442 147.483 586.229C147.074 586.058 146.671 585.885 146.267 585.718L145.234 584.921L144.437 583.887L144.182 583.28L143.925 582.671L143.743 581.317C143.718 580.613 143.861 579.963 144.18 579.353C144.303 578.924 144.52 578.546 144.835 578.23C145.062 577.847 145.366 577.541 145.751 577.315C146.065 576.999 146.444 576.783 146.872 576.66C147.271 576.429 147.699 576.316 148.156 576.316ZM467.229 569.163C467.766 569.143 468.268 569.256 468.73 569.502C468.893 569.557 469.051 569.625 469.203 569.705C469.798 570.054 470.271 570.526 470.62 571.117C470.905 571.57 471.063 572.058 471.087 572.584C471.194 573.059 471.185 573.537 471.056 574.012L471.014 574.155C470.905 574.544 470.743 574.902 470.527 575.232C470.506 575.272 470.482 575.311 470.453 575.346C470.123 575.868 469.685 576.296 469.144 576.616C468.543 576.96 467.899 577.137 467.2 577.143C465.807 577.143 464.607 576.39 463.874 575.232C463.77 575.07 463.711 574.863 463.638 574.696C463.573 574.538 463.47 574.337 463.415 574.155C463.229 573.456 463.229 572.757 463.415 572.058C463.538 571.545 463.77 571.098 464.12 570.718C464.4 570.29 464.769 569.951 465.227 569.705C465.795 569.373 466.405 569.196 467.052 569.167L467.229 569.163ZM194.855 564.265C195.536 564.078 196.214 564.064 196.891 564.222L197.06 564.265C197.601 564.393 198.068 564.639 198.472 565.003C198.919 565.298 199.279 565.687 199.539 566.169C199.914 566.815 200.101 567.514 200.105 568.261C200.101 569.01 199.914 569.709 199.539 570.354C199.17 570.979 198.673 571.471 198.049 571.841L197.508 572.102C197.055 572.387 196.573 572.54 196.05 572.564C195.702 572.658 195.352 572.658 195.008 572.564C194.653 572.564 194.323 572.476 194.019 572.298C193.684 572.205 193.398 572.037 193.152 571.791C192.724 571.515 192.39 571.151 192.144 570.694L191.745 569.753L191.608 568.709L191.745 567.671L191.962 567.159C192.158 566.455 192.513 565.845 193.029 565.328C193.546 564.815 194.156 564.461 194.855 564.265ZM438.886 555.96C439.604 555.733 440.318 555.703 441.031 555.861C441.513 555.861 441.966 555.984 442.384 556.23C442.842 556.358 443.235 556.584 443.57 556.919C444.155 557.298 444.613 557.8 444.953 558.425L445.494 559.711C445.819 560.542 445.7 561.768 445.504 562.605C445.342 563.294 445.027 563.895 444.559 564.406C444.323 564.805 444.008 565.121 443.609 565.357C443.154 565.772 442.628 566.067 442.032 566.242L441.868 566.287L441.809 566.302C441.798 566.307 441.789 566.307 441.779 566.307C441.774 566.312 441.764 566.312 441.759 566.312C441.523 566.371 441.282 566.405 441.031 566.415C440.318 566.572 439.604 566.543 438.886 566.317C438.463 566.139 438.034 565.957 437.606 565.775C437.242 565.5 436.882 565.219 436.519 564.938C436.238 564.574 435.958 564.21 435.677 563.851C435.283 563.235 435.072 562.566 435.043 561.852C434.914 561.375 434.914 560.902 435.043 560.424C435.043 559.937 435.166 559.489 435.406 559.07C435.623 558.401 435.992 557.825 436.519 557.338C436.882 557.057 437.242 556.776 437.606 556.501C438.034 556.318 438.463 556.137 438.886 555.96ZM125.039 538.337C125.782 538.135 126.525 538.135 127.268 538.337L128.267 538.755C128.759 539.021 129.148 539.38 129.443 539.838C129.817 540.241 130.068 540.719 130.196 541.266C130.486 542.014 130.452 543.2 130.221 543.963C129.96 544.83 129.556 545.519 128.932 546.169C127.893 547.242 126.298 547.552 124.887 547.227C124.497 547.138 124.128 546.966 123.794 546.755C122.726 546.095 122.008 544.943 122.013 543.668C122.013 543.53 122.023 543.392 122.042 543.255C121.974 542.974 121.948 542.683 121.959 542.378L122.106 541.266L122.116 541.236C122.313 540.532 122.667 539.922 123.184 539.405C123.661 538.932 124.218 538.59 124.854 538.385L125.015 538.337H125.039ZM496.355 427.798C495.011 416.772 489.957 404.91 474.542 411.385L473.397 411.814C469.582 413.259 465.137 415.156 462.816 418.493C461.217 420.792 461.757 425.247 461.537 427.93C460.531 436.653 461.071 445.364 462.118 454.05C463.469 474.41 459.19 495.504 450.671 514.008C459.197 527.809 470.608 540.681 486.174 546.434C486.832 530.743 489.903 515.339 493.172 500.028L493.3 499.36C494.607 492.456 495.262 485.37 499.795 479.628C509.015 469.613 521.697 475.281 527.765 459.194C526.49 458.549 527.194 456.344 528.73 456.768C534.051 457.712 534.916 447.843 531.274 445.465C527.478 443.149 531.299 438.879 529.684 435.796C528.783 434.467 526.84 434.423 525.958 432.892C523.623 427.256 535.311 423.644 521.566 417.29C518.753 416.289 515.608 416.91 512.771 416.899C508.597 417.289 505.28 420.23 501.463 421.156C505.619 431.921 495.133 442.288 485.668 433.69C480.517 438.56 474.757 449.661 487.277 444.485C493.405 440.394 498.68 435.106 505.794 432.586L505.944 432.539C508.585 431.674 520.14 426.058 519.567 430.919C515.239 435.097 508.1 435.048 503.088 438.44C496.138 441.655 491.694 449.446 483.374 449.338C481.456 460.989 494.672 453.9 499.593 450.687L500.958 449.946C507.899 446.195 514.945 442.72 523.041 442.673C525.275 442.659 525.265 446.105 523.041 446.134C512.491 446.2 503.904 452.797 495.066 457.702C494.196 464.503 504.151 461.525 507.929 460.522C511.89 459.965 518.251 455.68 521.718 457.944C523.073 461.428 517.107 461.169 515.03 462.226C524.513 466.783 516.204 469.652 513.662 462.65L512.917 462.904C506.567 465.038 491.168 469.433 493 458.672C490.676 459.701 487.842 460.316 485.274 459.745C478.869 469.222 468.653 465.555 483.502 459.096C480.156 457.539 479.039 451.527 482.253 449.29C470.565 448.576 479.242 436.308 484.08 432.22C483.623 431.758 483.181 431.287 482.769 430.81C479.979 432.139 477.047 432.946 473.911 433.232C470.91 433.502 470.241 428.393 473.203 427.974C476.377 427.526 479.301 426.68 482.095 425.084C486.331 423.254 487.777 431.117 492.016 431.396C494.328 431.853 495.892 429.825 496.355 427.798ZM397.951 529.25C398.974 529.25 399.884 529.678 400.627 530.357C401.37 531.037 401.69 532.056 401.734 533.03C401.754 533.552 401.646 534.039 401.409 534.492C401.257 534.96 400.996 535.364 400.627 535.709C399.938 536.393 398.919 536.816 397.951 536.816C396.927 536.816 396.017 536.388 395.273 535.709C394.531 535.024 394.21 534.01 394.166 533.03C394.146 532.513 394.255 532.026 394.491 531.573C394.628 531.152 394.853 530.779 395.166 530.461L395.273 530.357C395.963 529.668 396.981 529.25 397.951 529.25ZM428.964 505.902L429.128 505.905C429.994 505.91 430.797 506.127 431.544 506.56C431.869 506.811 432.194 507.057 432.514 507.309C433.109 507.909 433.517 508.613 433.744 509.425C433.975 510.272 433.975 511.124 433.744 511.97C433.665 512.458 433.483 512.93 433.198 513.339C432.774 514.042 432.214 514.609 431.505 515.027C430.771 515.456 429.979 515.667 429.128 515.672C428.277 515.667 427.484 515.456 426.751 515.027C426.043 514.609 425.482 514.042 425.063 513.339C424.773 512.93 424.591 512.458 424.512 511.97C424.281 511.124 424.281 510.272 424.512 509.425C424.722 508.671 425.09 508.01 425.618 507.439L425.742 507.309C426.175 506.841 426.687 506.511 427.283 506.319C427.806 506.044 428.366 505.905 428.964 505.902ZM192.276 506.166C192.641 506.068 193 506.068 193.364 506.166C193.905 506.191 194.412 506.353 194.88 506.649C195.155 506.865 195.431 507.077 195.706 507.289L195.947 507.577C196.46 508.203 196.473 508.31 196.867 509.263C197.03 509.795 197.055 510.326 196.937 510.858C196.937 511.217 196.843 511.552 196.665 511.862C196.568 512.202 196.4 512.497 196.149 512.743C195.972 513.043 195.736 513.284 195.435 513.462C195.052 513.811 194.599 514.053 194.078 514.176L193.019 514.318C192.882 514.299 192.739 514.279 192.601 514.264C192.435 514.259 192.274 514.24 192.116 514.21L191.956 514.175L191.811 514.136C191.618 514.08 191.43 514.005 191.248 513.91C190.904 513.811 190.604 513.639 190.347 513.383C189.905 513.098 189.551 512.713 189.295 512.236L189.226 512.079C189.132 511.911 189.054 511.739 188.994 511.552C188.827 511.257 188.744 510.942 188.739 510.602C188.641 510.15 188.647 509.702 188.764 509.254L188.808 509.105L189.186 508.204C189.383 507.899 189.59 507.589 189.855 507.338C190.015 507.196 190.406 506.891 190.626 506.738L190.761 506.649C191.229 506.353 191.735 506.191 192.276 506.166ZM139.314 497.448C141.307 499.443 140.426 503.105 137.637 503.814L137.316 503.892C134.62 504.577 132.189 502.14 132.873 499.443L132.952 499.127C133.66 496.336 137.321 495.455 139.314 497.448ZM470.698 476.36C470.679 476.084 471.033 475.986 471.21 476.149C473.582 478.275 475.093 480.825 477.971 482.474C480.865 484.129 483.847 483.995 486.863 485.063C487.886 485.428 487.891 486.797 486.863 487.155C481.155 489.15 471.131 482.39 470.698 476.36ZM202.492 475.927C203.127 475.73 203.767 475.7 204.401 475.843C204.835 475.843 205.238 475.951 205.607 476.167C206.015 476.281 206.365 476.488 206.665 476.783C207.024 476.995 207.31 477.285 207.526 477.644C207.949 478.107 208.235 478.649 208.382 479.269L208.549 480.544L208.382 481.819C208.22 482.198 208.057 482.582 207.9 482.961L207.46 483.557C207.104 484.033 207.047 484.038 206.182 484.679C205.632 485.028 205.036 485.221 204.401 485.245C203.978 485.363 203.555 485.363 203.127 485.245C202.699 485.245 202.295 485.137 201.921 484.92C201.517 484.807 201.164 484.6 200.863 484.305C200.342 483.965 199.933 483.517 199.633 482.961C199.47 482.582 199.308 482.198 199.151 481.819L198.978 480.544L199.151 479.269L199.16 479.23C199.387 478.432 199.791 477.738 200.371 477.152L201.326 476.413C201.699 476.173 202.088 476.05 202.492 475.927ZM432.198 476.882C433.561 476.507 435.057 476.901 436.056 477.901C437.055 478.9 437.449 480.391 437.075 481.755C436.706 483.084 435.638 484.162 434.305 484.522C433.906 484.629 433.502 484.689 433.094 484.669C432.41 484.664 431.77 484.492 431.175 484.148L430.407 483.551C430.033 483.207 429.772 482.799 429.619 482.326C429.378 481.873 429.27 481.386 429.29 480.859L429.285 480.766C429.27 480.579 429.295 480.391 429.354 480.209C429.354 480.017 429.384 479.83 429.433 479.648C429.792 478.319 430.875 477.245 432.198 476.882ZM138.35 463.551C138.788 463.536 139.196 463.625 139.575 463.827C139.974 463.954 140.313 464.171 140.598 464.486C140.913 464.772 141.13 465.116 141.258 465.51C141.46 465.89 141.548 466.298 141.533 466.736C141.533 467.312 141.386 467.848 141.1 468.341C140.933 468.558 140.766 468.774 140.598 468.986C140.205 469.384 139.737 469.655 139.196 469.808L138.881 469.916C138.419 470.083 137.966 470.093 137.484 470.03C136.977 469.96 136.509 469.822 136.096 469.507C135.692 469.271 135.373 468.951 135.136 468.547L134.866 467.907C134.807 467.691 134.782 467.366 134.767 467.139C134.767 467.105 134.767 467.076 134.762 467.041C134.762 466.849 134.821 466.382 134.87 466.189C134.979 465.786 135.2 465.402 135.451 465.077C135.668 464.738 135.963 464.471 136.327 464.274L136.36 464.25L136.396 464.225C136.509 464.146 136.627 464.068 136.745 463.984C137.238 463.699 137.774 463.551 138.35 463.551ZM392.454 460.056C393.241 460.056 393.974 460.258 394.654 460.652C394.678 460.661 394.702 460.671 394.722 460.682C395.372 461.065 395.888 461.582 396.272 462.232C396.666 462.906 396.862 463.635 396.862 464.413C396.862 465.195 396.666 465.919 396.272 466.593C395.888 467.244 395.372 467.76 394.722 468.144C394.702 468.159 394.678 468.168 394.654 468.178C393.974 468.572 393.241 468.769 392.454 468.774C391.672 468.769 390.938 468.572 390.259 468.178C388.931 467.401 388.099 465.948 388.099 464.413C388.099 462.876 388.931 461.424 390.259 460.652C390.938 460.258 391.672 460.056 392.454 460.056ZM188.102 454.363L188.236 454.36C188.758 454.34 189.245 454.449 189.692 454.69C190.16 454.842 190.568 455.104 190.913 455.473L191.632 456.073L191.84 456.242C191.875 456.271 191.908 456.3 191.941 456.33C192.424 456.816 192.754 457.387 192.941 458.047C193 458.427 193.048 458.8 193.088 459.179C193.196 460.164 192.616 461.173 191.976 461.872C191.632 462.242 191.223 462.502 190.751 462.66C190.298 462.896 189.806 463.004 189.284 462.985C188.216 462.891 187.203 462.665 186.435 461.838C186.346 461.739 186.263 461.636 186.175 461.532L185.559 460.823C185.092 460.351 184.767 459.795 184.59 459.155C184.54 458.815 184.497 458.48 184.452 458.146C184.407 457.136 184.9 456.191 185.559 455.473C186.169 454.807 187.202 454.4 188.102 454.363ZM163.264 443.997C168.381 443.997 168.371 451.938 163.264 451.938C158.15 451.938 158.16 443.997 163.264 443.997ZM420.562 432.864L420.723 432.867C421.57 432.872 422.362 433.084 423.095 433.512L424.05 434.246C424.631 434.836 425.034 435.526 425.261 436.323C425.314 436.741 425.369 437.16 425.428 437.573C425.452 438.223 425.314 438.829 425.019 439.39C424.832 439.971 424.508 440.477 424.05 440.906C423.622 441.364 423.12 441.689 422.534 441.876C421.973 442.171 421.368 442.309 420.723 442.285C419.872 442.279 419.08 442.068 418.346 441.64C418.027 441.394 417.712 441.147 417.392 440.906C416.856 440.361 416.471 439.732 416.241 439.011L416.187 438.829L416.014 437.573C415.99 436.929 416.127 436.323 416.422 435.762C416.61 435.176 416.935 434.674 417.392 434.246C417.82 433.787 418.327 433.463 418.908 433.276C419.422 433.005 419.973 432.866 420.562 432.864ZM397.512 418.002C397.97 417.986 398.393 418.08 398.792 418.287C399.2 418.42 399.554 418.651 399.854 418.971C400.489 419.479 400.878 420.492 400.878 421.314C400.878 422.136 400.489 423.151 399.854 423.657C399.441 424.066 398.954 424.352 398.393 424.509L397.512 424.628C396.656 424.667 395.785 424.219 395.175 423.657C395.052 423.545 394.933 423.431 394.81 423.323C394.255 422.811 394.014 422.048 393.979 421.314C393.964 420.926 394.048 420.562 394.225 420.222C394.339 419.867 394.535 419.567 394.81 419.306C394.933 419.197 395.052 419.085 395.175 418.971C395.839 418.356 396.616 418.046 397.512 418.002ZM543.551 391.522C546.784 387.582 544.901 384.778 540.042 385.752C531.672 386.885 523.794 392.177 516.422 395.972C508.377 400.223 500.085 403.73 491.877 407.724C495.264 409.804 497.782 413.06 499.706 416.776C503.547 413.858 508.456 412.463 513.249 412.281C521.943 403.951 536.342 402.044 543.551 391.522ZM161.542 404.602C162.419 404.606 163.24 404.812 164.01 405.224L164.174 405.315L165.227 406.132C165.739 406.605 166.098 407.165 166.31 407.811C166.634 408.431 166.782 409.105 166.757 409.824C166.782 410.543 166.634 411.212 166.31 411.833C166.098 412.482 165.739 413.039 165.227 413.511C164.937 413.89 164.563 414.186 164.115 414.403C163.696 414.575 163.283 414.752 162.865 414.929C162.398 415.077 161.856 415.096 161.35 415.121C160.429 415.116 159.574 414.885 158.775 414.422L157.743 413.625C157.246 413.162 156.891 412.615 156.684 411.98C156.391 411.421 156.243 410.824 156.243 410.186L156.247 410.011C156.247 409.972 156.247 409.928 156.252 409.883C156.311 409.421 156.375 408.958 156.438 408.496C156.601 407.816 156.911 407.22 157.374 406.718C157.492 406.482 157.649 406.29 157.851 406.132C158.5 405.482 159.268 405.039 160.154 404.788C160.616 404.729 161.079 404.665 161.542 404.602ZM390.013 391.562C390.677 391.562 391.292 391.729 391.863 392.059C392.114 392.251 392.36 392.443 392.606 392.635C393.064 393.092 393.379 393.634 393.551 394.254L393.684 395.228C393.698 395.736 393.595 396.204 393.364 396.642C393.217 397.095 392.965 397.488 392.606 397.823C392.276 398.182 391.883 398.434 391.425 398.581C390.992 398.813 390.52 398.916 390.013 398.897C389.353 398.897 388.733 398.729 388.162 398.394C387.916 398.207 387.665 398.015 387.419 397.823C387.004 397.404 386.705 396.914 386.526 396.357L386.48 396.204L386.347 395.228C386.327 394.722 386.431 394.254 386.662 393.816C386.809 393.359 387.066 392.964 387.419 392.635C387.754 392.275 388.148 392.024 388.601 391.877C388.995 391.668 389.417 391.564 389.863 391.559L390.013 391.562ZM190.304 386.228L190.475 386.23C191.454 386.235 192.365 386.481 193.211 386.974C193.575 387.255 193.94 387.535 194.304 387.821C194.978 388.495 195.44 389.292 195.702 390.213L195.893 391.65C195.922 392.398 195.765 393.092 195.425 393.737C195.209 394.412 194.835 394.993 194.304 395.485C193.817 396.012 193.236 396.386 192.562 396.603C191.917 396.942 191.223 397.1 190.475 397.07C189.496 397.07 188.586 396.824 187.739 396.332C187.376 396.051 187.011 395.766 186.642 395.485C185.973 394.806 185.51 394.008 185.249 393.092L185.057 391.65C185.028 390.907 185.185 390.208 185.525 389.563C185.741 388.894 186.115 388.308 186.642 387.821C187.134 387.289 187.715 386.914 188.389 386.698C188.984 386.384 189.621 386.23 190.304 386.228ZM372.509 372.693C372.957 372.574 373.405 372.574 373.852 372.693C374.522 372.722 375.147 372.924 375.728 373.293L376.746 374.081C376.761 374.096 376.776 374.111 376.791 374.131C377.406 374.75 377.833 375.484 378.069 376.326L378.247 377.65C378.272 378.335 378.129 378.974 377.819 379.565C377.634 380.133 377.329 380.627 376.908 381.055L376.746 381.214C376.288 381.706 375.752 382.056 375.127 382.257C374.734 382.489 374.305 382.602 373.852 382.602C373.184 382.755 372.509 382.726 371.84 382.513C371.442 382.341 371.038 382.174 370.635 382.007L370.506 381.933C368.986 381.101 368.046 379.358 368.046 377.65C368.046 375.942 368.986 374.194 370.506 373.362C370.551 373.343 370.59 373.318 370.635 373.293C371.215 372.924 371.84 372.722 372.509 372.693Z" fill="black"/>
<path fill-rule="evenodd" clip-rule="evenodd" d="M378.904 183.166C361.629 137.602 330.489 104.243 277.991 125.196C276.485 124.168 274.52 123.892 272.636 125.096C244.039 143.098 223.445 171.959 214.52 204.503C209.089 205.539 203.811 207.344 199.097 210.305C188.852 216.741 181.96 226.981 175.499 236.954C173.556 239.953 175.355 244.917 179.006 245.598C180.592 245.894 182.164 246.07 183.727 246.117C183.346 247.501 182.845 248.839 182.208 250.067C179.898 254.509 184.261 259.225 188.35 258.011C188.804 258.251 189.279 258.449 189.772 258.598C189.828 261.115 191.118 264.483 193.67 264.992C197.799 265.88 203.286 262.712 202.312 258.083C203.559 258.303 204.802 258.33 206.013 258.178C206.149 260.588 206.107 263.104 206.438 265.327C207.524 275.807 217.968 282.846 227.928 279.658C228.539 282.924 229.257 287.512 232.465 289.283C236.215 299.831 242.691 311.868 253.299 316.674C252.355 319.1 252.867 322.05 255.711 323.673C275.127 334.77 298.432 338.525 320.383 334.4C329.156 333.876 337.704 331.889 345.908 327.655C351.891 324.567 357.391 320.646 362.76 316.604C368.132 312.561 373.876 308.624 378.163 303.373C382.82 297.672 384.988 290.963 386.395 283.822C392.842 251.412 390.615 219.588 378.904 188.714C364.408 150.497 393.395 221.385 378.904 183.166Z" fill="#EDB98A"/>
<path fill-rule="evenodd" clip-rule="evenodd" d="M199.047 208.442C215.172 198.906 235.737 201.374 245.424 216.145C247.097 218.695 248.252 221.5 249.067 224.747L249.199 225.287L249.33 225.855C249.753 227.733 250.03 229.499 250.405 232.503L250.821 235.912L250.94 236.84C251.343 239.925 251.697 241.874 252.249 243.86L252.358 244.245L252.996 246.445L250.59 247.336C245.982 249.005 245.017 249.154 242.357 247.76C240.28 246.672 239.196 245.207 237.754 242.238L237.545 241.804L237.085 240.835L236.835 240.325C235.895 238.443 235.142 236.437 234.079 235.709C232.635 234.719 228.082 234.325 224.916 234.715L224.751 234.736L224.614 234.765L224.38 234.817C219.056 236.079 214.203 240.388 211.002 244.941C208.425 248.607 206.944 253.226 206.762 258.025L206.752 258.345L206.689 260.794L201.528 260.684L201.578 259.731L201.501 259.9C199.875 263.337 195.79 265.625 192.372 263.351L192.25 263.267L192.126 263.178C189.24 261.049 188.893 256.739 191.261 254.121L191.371 254.003L191.477 253.895L191.455 253.884L191.431 253.876L191.416 253.875C190.609 254.023 189.9 254.438 188.941 255.321L188.695 255.553L188.2 256.09L187.687 256.638L187.467 256.865C187.326 257.007 187.197 257.132 187.076 257.243C186.912 257.392 186.761 257.518 186.596 257.632C186.443 257.738 186.286 257.831 186.095 257.914C185.625 258.118 185.122 258.215 184.479 258.057C183.597 257.84 183.099 257.305 182.798 256.675C182.681 256.431 182.615 256.206 182.567 255.968C182.518 255.72 182.493 255.466 182.481 255.174C182.472 254.983 182.469 254.774 182.471 254.546L182.477 254.189L182.489 253.801L182.502 253.491L182.56 252.343C182.769 248.574 183.758 244.872 185.449 241.378L185.621 241.029L185.685 240.902L185.508 241.14C184.354 242.664 183.24 243.721 181.849 244.419L181.658 244.512L181.471 244.597C179.542 245.446 177.598 245.117 176.424 243.542C175.612 242.452 175.373 241.017 175.539 239.508C175.862 236.581 177.017 233.9 179.278 229.989L179.595 229.445L180.837 227.335C185.62 219.264 191.768 212.745 199.047 208.442Z" fill="#E8E1E1"/>
<path fill-rule="evenodd" clip-rule="evenodd" d="M295.387 116.316C304.228 115.691 313.231 117.185 321.65 119.857C335.078 124.118 347.41 131.638 357.542 141.428C367.983 151.517 375.706 163.956 380.402 177.695C386.065 194.264 386.912 211.955 388.506 229.251C389.311 237.99 390.638 246.595 392.017 255.249L392.235 256.616C393.583 265.048 394.341 273.575 392.479 281.993C389.385 295.985 380.108 307.861 369.097 316.637C346.476 334.665 311.262 345.656 284.924 329.067C280.849 326.5 284.71 319.937 288.688 322.611C291.487 324.494 294.453 326.145 297.634 327.284C310.922 332.045 325.516 330.349 338.65 325.921C351.592 321.557 364.011 314.183 373.561 304.343C383.592 294.008 389.151 281.242 388.347 266.716C387.869 258.074 385.904 249.591 384.814 241.018C383.849 233.426 383.27 225.792 382.602 218.169L382.358 215.427C380.943 199.896 378.911 183.938 371.862 169.84C365.932 157.979 357.25 147.427 346.811 139.278C335.881 130.747 322.827 124.78 309.13 122.555C293.023 119.938 277.604 124.696 264.168 133.555C252.251 141.412 242.006 151.911 234.151 163.824C230.341 169.6 227.096 175.769 224.294 182.095C221.653 188.056 219.832 194.302 217.708 200.446C219.456 200.394 221.232 200.461 223.037 200.661C232.29 201.689 240.911 206.496 246.399 214.077C253.106 223.34 251.293 234.71 253.913 245.245C254.116 246.063 253.771 246.863 253.072 247.315C249.1 249.889 243.784 249.975 239.94 247.077C236.603 244.562 235.037 240.015 236.388 236.041C236.564 235.524 237.316 235.615 237.338 236.17C237.591 242.932 243.849 248.139 249.982 244.921C247.351 235.837 248.736 225.692 243.355 217.487C233.83 202.965 214.12 202.365 200.276 210.551C192.99 214.859 187.223 221.336 182.929 228.581L181.692 230.685C180.046 233.495 178.303 236.674 177.961 239.768C177.764 241.554 178.422 243.233 180.465 242.333C182.119 241.605 183.399 239.907 184.381 238.448C186.056 235.958 189.905 238.109 188.521 240.76L188.474 240.847C186.461 244.423 185.221 248.363 184.994 252.469L184.936 253.606C184.898 254.435 184.87 255.613 185.045 255.655C185.255 255.707 186.712 254.021 186.955 253.788C188.123 252.663 189.327 251.743 190.954 251.443C193.092 251.05 195.25 253.703 193.393 255.442L193.316 255.512C191.659 256.956 191.733 259.835 193.563 261.185C196.146 263.091 199.326 259.98 199.701 257.419L199.713 257.325C200.045 254.558 203.878 254.46 204.086 257.325C204.539 263.542 197.155 268.753 191.537 265.617C189.315 264.377 187.903 262.107 187.461 259.674C186.752 260.05 185.987 260.31 185.178 260.382C182.545 260.616 180.673 258.76 180.247 256.269C179.751 253.367 180.046 250.26 180.808 247.247C179.378 247.592 177.874 247.46 176.362 246.585C171.788 243.939 173.102 238.054 174.829 234.08C182.202 217.12 197.477 201.73 216.402 200.508C216.505 197.515 216.91 194.686 217.572 191.69C224.045 162.381 245.014 135.241 272.313 122.556C279.608 119.166 287.345 116.886 295.387 116.316ZM223.797 233.396L224.056 233.337C227.006 232.7 234.767 231.952 233.832 236.927C233.787 237.161 233.448 237.133 233.388 236.927C232.471 233.799 226.247 236.301 224.43 237.054C221.924 238.092 219.453 239.623 217.407 241.402C212.929 245.299 209.926 250.791 209.47 256.755C209.017 262.672 210.729 269.062 214.987 273.342C217.073 275.44 219.737 276.864 222.73 276.969C225.418 277.062 228.388 274.964 230.869 276.193C231.358 276.435 231.746 277.1 231.702 277.648C231.618 278.684 231.155 279.491 230.467 280.116C234.62 287.704 238.019 295.735 243.317 302.634C245.976 306.096 248.988 309.301 252.399 312.03C254.021 313.327 255.784 314.466 257.601 315.467C259.732 316.641 261.575 317.375 263.095 319.364C264.391 321.06 263.095 324.339 260.958 324.631C255.925 325.318 251.034 321.24 247.34 318.184C243.648 315.131 240.458 311.365 237.822 307.369C232.759 299.696 229.296 290.644 227.911 281.487C226.304 281.998 224.494 282.154 223.132 282.157C219.509 282.165 216.05 280.859 213.203 278.651C202.78 270.569 201.621 253.976 208.977 243.513C212.496 238.506 217.845 234.806 223.797 233.396ZM223.862 252.64C226.279 252.428 228.694 252.81 230.966 253.636L231.902 253.976C233.88 254.701 235.986 255.554 237.414 257.041C239.597 259.313 237.424 263.25 234.314 262.379C230.877 261.416 228.083 258.514 224.646 257.297C221.574 256.209 218.094 256.363 215.368 258.236C215.008 258.484 214.535 257.996 214.77 257.636C216.856 254.453 220.148 252.967 223.862 252.64Z" fill="black"/>
<path fill-rule="evenodd" clip-rule="evenodd" d="M323.369 276.798C326.121 272.268 331.989 283.365 332.612 285.273C333.164 286.963 333.529 288.695 333.714 290.446C335.848 290.925 338.064 290.926 340.251 290.506C343.501 289.883 345.488 288.135 348.312 286.634C350.263 285.597 352.722 286.813 353.737 288.533C354.93 290.557 354.17 292.659 352.6 294.168C349.624 297.03 343.767 297.687 339.882 296.927C337.656 296.492 335.615 295.657 333.814 294.443C333.802 294.67 333.794 294.896 333.776 295.122L333.741 295.515C333.443 298.689 332.571 302.68 330.106 304.745C326.064 308.133 321.076 301.618 325.003 298.234L325.125 298.132C327.566 296.159 328.099 290.864 327.968 287.948C327.881 286.045 327.535 284.117 326.934 282.304L326.811 281.943C326.63 281.431 324.658 276.574 323.946 277.193L323.912 277.227C323.618 277.578 323.143 277.17 323.369 276.798ZM345.347 251.238C349.063 253.497 354.725 258.766 350.727 264.368C346.022 269.307 339.247 263.644 335.909 261.083C332.813 259.098 329.335 264.203 332.207 266.521C356.331 284.388 366.121 251.829 347.227 248.581C345.146 248.223 344.374 250.539 345.347 251.238ZM305.668 230.353C309.3 229.708 313.02 230.611 316.025 232.737L316.253 232.901C319.148 235.019 322.387 238.738 320.726 242.39C320.059 243.856 318.062 244.085 316.795 243.421C314.685 242.314 314.303 239.591 312.421 238.085C310.877 236.85 308.799 236.1 306.811 236.281C302.14 236.705 299.268 241.313 297.817 245.285C297.631 245.793 296.886 245.99 296.595 245.445C293.174 239.049 299.229 231.496 305.668 230.353ZM363.837 227.939C370.793 227.365 378.936 234.58 377.104 241.926C376.226 245.45 371 245.349 370.071 241.926C369.559 240.042 369.61 238.375 368.255 236.81C367.136 235.519 365.546 234.769 363.837 234.884C361.953 235.011 360.216 235.952 358.895 237.276C357.703 238.471 356.99 240.22 355.755 241.278C355.451 241.538 355.044 241.555 354.744 241.278C352.618 239.318 353.894 235.236 355.242 233.189C357.171 230.26 360.312 228.23 363.837 227.939ZM292.421 217.324C296.884 213.372 304.992 209.556 311.01 211.501C314.47 212.618 315.978 218.195 312.116 219.963C307.643 222.01 302.487 221.177 297.935 223.299C296.023 224.19 294.225 225.304 292.894 226.938C291.845 228.226 290.778 229.92 289.262 230.663C288.863 230.858 288.323 230.863 288.004 230.501C284.68 226.739 289.518 219.894 292.421 217.324ZM356.166 211.304C358.925 210.53 361.984 210.546 364.786 211.032C367.587 211.518 370.431 212.68 372.717 214.374L372.983 214.572C375.479 216.454 378.458 219.192 378.299 222.526C378.165 225.309 375.238 227.192 372.711 225.733C370.65 224.543 369.681 222.16 367.936 220.573C366.497 219.263 364.806 218.23 363.002 217.506C360.999 216.702 358.991 216.326 356.841 216.29C355.185 216.262 353.52 216.806 351.895 216.98C352.029 217.254 350.744 217.126 350.008 216.883C349.463 216.65 349.46 215.961 349.649 215.513C350.586 213.296 353.997 211.913 356.166 211.304Z" fill="black"/>
<path fill-rule="evenodd" clip-rule="evenodd" d="M365.678 309.994C363.961 309.432 362.274 308.778 360.579 308.147C351.914 303.793 341.448 303.004 332.36 306.671C327.9 308.47 323.741 311.704 319.266 313.823C318.203 314.22 317.131 314.58 316.047 314.883C315.383 314.651 314.719 314.405 314.059 314.159C309.312 312.369 304.847 310.161 300.512 307.732C300.05 307.081 299.57 306.448 299.054 305.84C302.191 305.395 305.263 304.654 308.041 303.89C316.574 301.552 324.615 297.742 333.118 295.3C341.035 293.021 349.627 291.775 357.579 294.606C361.353 295.95 364.675 298.303 368.345 299.888C370.245 300.705 372.523 301.508 374.742 301.626C373.311 305.057 371.5 308.262 369.025 310.93C367.893 310.688 366.771 310.349 365.678 309.994ZM384.142 283.12C383.382 283.752 380.246 285.79 379.229 287.004C378.966 286.905 378.705 286.802 378.445 286.697C377.998 286.147 377.339 285.906 376.667 285.921C371.978 283.739 367.804 280.656 364.079 276.79C361.432 274.048 358.72 271.178 355.182 269.588C351.015 267.708 346.916 268.574 342.536 268.86C337.876 269.17 333.275 267.846 328.62 268.481C325.215 268.948 322.026 270.391 319.271 272.424C313.646 276.574 309.769 282.402 305.015 287.428C299.622 293.129 292.989 296.772 285.613 298.632C285.524 298.573 285.43 298.514 285.337 298.46C279.9 293.537 274.989 287.98 270.644 282.058C266.402 276.273 255.217 250.237 252.515 247.953C251.393 247.003 250.163 246.594 248.987 246.629C246.857 246.678 244.888 248.16 244.007 250.493C242.511 254.461 243.259 259.59 243.378 263.74C243.525 268.82 243.86 273.896 244.391 278.951C244.918 283.948 245.616 288.93 246.487 293.877C246.925 296.378 247.413 298.874 247.949 301.36C248.116 302.142 248.328 302.841 248.584 303.491C248.845 304.717 249.125 305.938 249.425 307.149C251.384 315.079 254.474 323.019 260.374 328.872C266.515 334.972 274.861 339.023 282.611 342.646C289.992 346.097 297.727 349.164 305.665 351.566C312.559 354.692 319.94 357.163 327.351 358.463C335.509 359.895 344.086 359.984 351.964 357.148C355.837 355.755 359.498 353.811 362.819 351.389C367.529 348.942 371.765 345.58 375.235 341.13C381.448 333.155 384.414 323.476 385.712 313.496C386.044 310.942 387.292 301.152 387.391 299.628C387.708 294.705 388.025 289.783 388.342 284.861C388.492 282.538 385.642 281.875 384.142 283.12Z" fill="black"/>
</svg>
